<svg width="21" height="21" viewBox="0 0 21 21" fill="none" xmlns="http://www.w3.org/2000/svg">
<path fill-rule="evenodd" clip-rule="evenodd" d="M13.9544 10.0678C14.0714 10.185 14.1372 10.3438 14.1372 10.5094C14.1372 10.6751 14.0714 10.8339 13.9544 10.9511L7.7044 17.2011C7.58592 17.3115 7.42921 17.3716 7.2673 17.3687C7.10538 17.3659 6.95089 17.3003 6.83638 17.1858C6.72187 17.0713 6.65627 16.9168 6.65342 16.7549C6.65056 16.593 6.71066 16.4362 6.82106 16.3178L12.6294 10.5094L6.82106 4.7011C6.71066 4.58262 6.65056 4.42592 6.65342 4.264C6.65627 4.10208 6.72187 3.94759 6.83638 3.83308C6.95089 3.71857 7.10538 3.65298 7.2673 3.65012C7.42921 3.64726 7.58592 3.70737 7.7044 3.81777L13.9544 10.0678Z" fill="black"/>
</svg>
