<svg width="32" height="31" viewBox="0 0 32 31" fill="none" xmlns="http://www.w3.org/2000/svg">
<path d="M28.7906 9.30405C28.6388 8.75819 28.342 8.26039 27.9298 7.86018C27.5176 7.45997 27.0044 7.17133 26.4413 7.02296C24.3533 6.46755 16 6.45851 16 6.45851C16 6.45851 7.64795 6.44946 5.55862 6.98034C4.99585 7.13553 4.48371 7.42826 4.07137 7.83043C3.65903 8.2326 3.36033 8.7307 3.20395 9.27692C2.65328 11.2997 2.64795 15.495 2.64795 15.495C2.64795 15.495 2.64262 19.711 3.18928 21.7131C3.49595 22.82 4.39595 23.6945 5.53995 23.9929C7.64929 24.5483 15.98 24.5573 15.98 24.5573C15.98 24.5573 24.3333 24.5664 26.4213 24.0368C26.9846 23.8887 27.4983 23.6007 27.9115 23.2013C28.3247 22.8019 28.6231 22.305 28.7773 21.7596C29.3293 19.7381 29.3333 15.5441 29.3333 15.5441C29.3333 15.5441 29.36 11.3268 28.7906 9.30405ZM13.328 19.3816L13.3346 11.6316L20.2773 15.5131L13.328 19.3816Z" fill="white"/>
</svg>
