<svg width="24" height="24" viewBox="0 0 24 24" fill="none" xmlns="http://www.w3.org/2000/svg">
<path d="M1.56055 17.6396L1.91555 16.2406H6.8048L6.45005 17.6396H1.56055ZM3.56055 13.7549L3.91555 12.3559H9.8048L9.45005 13.7549H3.56055ZM18.447 19.9089L18.4548 19.8559L18.947 15.8366L19.6298 10.2356L19.9021 8.0434L18.447 19.9089ZM6.3193 21.2981C5.91996 21.2981 5.58596 21.1616 5.3173 20.8886C5.0488 20.6155 4.91455 20.2856 4.91455 19.8991H18.1395C18.226 19.8991 18.3021 19.8703 18.3678 19.8126C18.4335 19.755 18.4727 19.6812 18.4855 19.5914L19.8538 8.38965C19.8635 8.29982 19.837 8.21965 19.7745 8.14915C19.712 8.07865 19.636 8.0434 19.5463 8.0434H16.9558L16.6683 10.3704C16.6413 10.5729 16.5514 10.737 16.3985 10.8626C16.2457 10.9883 16.0717 11.0476 15.8765 11.0406C15.6845 11.0335 15.5299 10.9592 15.4125 10.8179C15.2952 10.6767 15.2485 10.5099 15.2723 10.3174L15.548 8.0434H10.95L10.6683 10.3674C10.6413 10.5667 10.5514 10.7306 10.3985 10.8589C10.2457 10.9871 10.0717 11.0476 9.87655 11.0406C9.68455 11.0335 9.52863 10.9573 9.4088 10.8121C9.2888 10.667 9.2423 10.5011 9.2693 10.3146L9.54055 8.0434H6.2683C6.32863 7.6159 6.52788 7.2754 6.86605 7.0219C7.20405 6.7684 7.58813 6.64165 8.0183 6.64165H9.71555L9.7443 6.3914C9.8828 5.21707 10.2984 4.30865 10.991 3.66615C11.6835 3.02348 12.617 2.70215 13.7913 2.70215C14.7988 2.70215 15.6311 3.07973 16.2883 3.8349C16.9455 4.5899 17.2237 5.47415 17.123 6.48765L17.1038 6.64165H19.701C20.1702 6.64665 20.561 6.82515 20.8735 7.17715C21.186 7.52898 21.3096 7.9379 21.2443 8.4039L19.8635 19.6471C19.8004 20.1251 19.5921 20.5198 19.2388 20.8311C18.8855 21.1425 18.4732 21.2981 18.002 21.2981H6.3193ZM11.1145 6.64165H15.7078L15.727 6.48765C15.791 5.84915 15.6145 5.29181 15.1975 4.81565C14.7807 4.33931 14.2546 4.10115 13.6193 4.10115C12.8925 4.10115 12.3192 4.30165 11.8995 4.70265C11.48 5.10348 11.228 5.6664 11.1433 6.3914L11.1145 6.64165Z" fill="white"/>
</svg>
