<svg width="267" height="183" viewBox="0 0 267 183" fill="none" xmlns="http://www.w3.org/2000/svg">
<g opacity="0.2">
<path fill-rule="evenodd" clip-rule="evenodd" d="M0 105.095C0.0828329 104.93 0.165663 104.764 0.579828 104.681C0.745494 104.681 0.911164 104.681 1.07683 104.681H1.49099C2.09844 104.681 2.73349 104.709 3.39615 104.764C5.05281 104.764 6.37814 104.681 7.5378 104.433C8.78029 104.184 10.0228 104.101 11.2653 104.35C12.2593 104.516 13.3361 104.681 14.4129 104.847C18.1404 105.178 21.9507 105.51 25.5125 105.758C26.0647 105.813 26.6446 105.841 27.252 105.841H27.749C27.9147 105.841 27.9975 105.675 28.0803 105.592V105.51V105.427C28.0803 105.344 27.9975 105.261 27.9147 105.178L27.8319 105.095C27.6662 105.04 27.5005 104.957 27.3349 104.847C26.8379 104.571 26.3409 104.322 25.8439 104.101C24.6014 103.439 23.3589 102.859 22.1164 102.279C20.7082 101.699 19.3829 100.871 18.0576 100.208C17.6158 99.9322 17.2016 99.6837 16.8151 99.4628C15.9867 99.0487 15.0756 98.4688 14.2473 97.9718C12.5906 96.895 10.7683 95.901 8.78029 95.2383C7.62063 94.7414 6.37814 94.2444 5.21848 93.7474C4.72148 93.5265 4.22448 93.3056 3.72748 93.0847C3.50659 92.9742 3.31332 92.8914 3.14765 92.8362C2.98199 92.7258 2.89915 92.5877 2.89915 92.422C2.89915 92.3668 2.89915 92.3116 2.89915 92.2564C2.98198 92.0907 3.06481 91.925 3.47898 92.0079C3.75509 92.0631 4.0036 92.1459 4.22448 92.2564C7.0408 93.2504 9.93995 93.3332 12.4249 93.3332C15.9039 93.2504 19.4657 93.3332 23.2761 93.5817C24.8499 93.6645 26.258 93.9959 27.5833 94.5757C28.6602 94.9898 29.5713 95.5697 30.4825 96.0667C30.9243 96.3428 31.3661 96.6189 31.8078 96.895C32.4705 97.2263 33.1332 97.6405 33.9615 98.2203C35.6181 99.5457 37.0263 101.037 38.3516 102.528C38.6277 102.859 38.9038 103.19 39.18 103.522C40.0083 104.433 40.9194 105.427 41.6649 106.421C42.5761 107.415 43.5701 107.912 44.8126 107.829C45.1992 107.829 45.5581 107.829 45.8894 107.829C46.8834 107.829 47.8774 107.746 48.7886 107.663C50.1691 107.498 51.5221 107.332 52.8474 107.166C55.9122 106.835 58.977 106.504 62.0418 105.924C62.0418 105.924 62.0695 105.924 62.1247 105.924C62.2903 106.007 62.6217 106.007 62.7873 105.51V105.344L62.6217 105.261C62.456 105.206 62.2903 105.151 62.1247 105.095C61.7381 104.985 61.3516 104.875 60.965 104.764C58.8942 104.267 56.6577 104.019 54.0899 104.019C51.1907 103.936 48.3744 103.522 45.7238 102.61C44.5641 102.196 43.3216 101.699 42.2448 101.202C41.5821 100.981 40.9195 100.733 40.2568 100.457C39.5941 100.208 39.0143 99.9598 38.4345 99.6285C36.9435 98.883 35.3696 98.0547 33.8787 96.895C33.5473 96.6465 33.0503 96.3152 32.6362 96.0667C31.0623 95.2383 29.4885 94.1615 27.9147 92.8362C26.8379 91.8422 25.6782 91.0139 24.5185 90.1855C23.6074 89.5229 22.6962 88.6945 21.7022 87.5349C21.3709 87.2036 21.0395 86.7894 20.9567 86.2924C20.8739 85.8782 21.0395 85.6297 21.3709 85.5469C21.7022 85.4365 22.0612 85.4365 22.4477 85.5469C23.0276 85.6297 23.6074 85.7954 24.27 86.0439C27.0863 86.7894 29.9027 87.6177 32.8018 88.3632C36.0323 89.1915 39.3456 90.2684 42.5761 91.5109C42.9627 91.6213 43.3216 91.7594 43.653 91.925C44.0395 92.1459 44.4261 92.3116 44.8126 92.422C45.8618 92.8086 46.911 93.1675 47.9602 93.4989C51.0251 94.5757 53.5929 96.1495 55.5809 98.386C56.2435 99.0487 56.9062 99.7389 57.5689 100.457C58.3144 101.285 59.1427 101.699 60.2195 101.699C60.6337 101.699 61.0479 101.782 61.462 101.865L61.8762 101.948C63.7813 102.362 65.6865 102.776 67.5917 103.19C68.9722 103.522 70.3528 103.632 71.7333 103.522C73.9698 103.356 76.0406 102.942 78.0286 102.279C81.0106 101.285 84.0754 100.291 86.9745 99.38L88.4655 98.883C89.0454 98.7173 89.4595 98.6345 89.8737 98.5517C91.4475 98.2203 93.187 97.7233 95.175 96.895C95.8929 96.6189 96.4727 96.2323 96.9145 95.7353C97.8257 94.7414 98.8197 93.7474 99.5652 92.5877C100.808 90.931 101.967 89.2744 103.293 87.6177L104.287 86.3752C106.109 84.0559 107.931 81.7366 109.588 79.2516C111.245 76.7666 112.487 74.4473 113.398 72.0451L114.227 69.8915C114.889 68.0692 115.552 66.2468 116.215 64.4245C116.325 64.1484 116.435 63.8447 116.546 63.5133C116.877 62.6022 117.209 61.6082 117.623 60.697C118.341 59.0956 118.92 57.3837 119.362 55.5614C119.694 54.2361 120.025 53.1592 120.439 52.2481C120.494 52.0824 120.522 51.9444 120.522 51.8339V51.6682L120.605 51.5854H120.522C120.522 51.475 120.494 51.3921 120.439 51.3369C120.273 51.2541 120.191 51.2541 120.025 51.3369C119.859 51.3921 119.721 51.475 119.611 51.5854C119.224 52.0272 118.81 52.469 118.368 52.9107C117.374 53.8219 116.463 54.8159 115.552 55.8099L115.055 56.3069C114.309 57.218 113.398 58.212 112.736 59.2889C111.41 61.4425 110.168 63.679 109.091 66.0812C108.428 67.5722 108.097 69.0631 108.263 70.4713C108.263 70.9683 108.263 71.4653 108.263 71.9623C108.318 72.1832 108.345 72.4041 108.345 72.625C108.401 74.2264 108.152 75.745 107.6 77.1808C107.186 78.1748 106.606 79.0859 105.943 79.9971C103.79 83.0619 101.967 85.5469 100.062 87.7834C97.9085 90.3512 95.4235 92.5877 93.0213 94.8242L92.1102 95.7353C91.8893 95.901 91.6684 96.0667 91.4475 96.2323L91.3647 96.3152C91.199 96.4256 91.0334 96.5637 90.8677 96.7293C90.5364 96.895 90.2879 96.9778 90.1222 96.8122C89.9565 96.757 89.8737 96.6465 89.8737 96.4808C89.8185 96.3704 89.8185 96.26 89.8737 96.1495C89.8737 95.4868 89.9565 94.907 90.0394 94.3272C90.0946 93.7197 90.1774 93.1123 90.2879 92.5049C90.3431 91.787 90.4259 91.0691 90.5364 90.3512C90.8677 87.9491 91.199 85.0499 92.0274 82.3164C92.8557 79.8314 93.8497 77.9263 95.2578 76.5181C95.6996 76.0211 96.1138 75.5517 96.5003 75.11C96.7212 74.8891 96.9421 74.6406 97.163 74.3645L97.7428 73.7846C98.9853 72.4593 100.228 71.0511 101.636 69.8915C103.872 67.9863 105.943 65.7498 107.848 63.2648C107.848 63.2096 107.848 63.182 107.848 63.182C107.931 63.0992 108.097 62.9335 108.014 62.685C108.014 62.6298 107.986 62.547 107.931 62.4365L107.766 62.2708L107.351 62.6022C107.186 62.7678 107.02 62.9059 106.854 63.0163C105.032 64.3417 103.21 65.5013 101.47 66.5782C99.9241 67.5722 98.4055 68.5385 96.9145 69.4773C96.3071 69.8639 95.6996 70.2228 95.0922 70.5541C93.5183 71.631 91.9445 72.625 90.205 73.5361C88.714 74.3645 87.1402 75.1928 85.5664 75.9383L84.2411 76.6009C82.3359 77.5121 80.4308 78.4233 78.4428 79.0859C76.2063 79.7486 74.0526 80.7426 71.9818 81.6537L71.1535 82.0679C70.1595 82.5649 69.0826 82.9791 68.0887 83.2276C66.432 83.5589 64.7753 83.7246 62.5388 83.5589C62.2627 83.5589 61.9866 83.5313 61.7105 83.4761C60.7994 83.4761 59.971 83.3932 59.1427 83.3932C57.8174 83.3104 56.6577 83.2276 55.6637 82.8962C54.7526 82.6477 53.8414 82.3993 52.9302 82.0679C51.6877 81.6537 50.4452 81.3224 49.2027 81.2396L48.8714 81.1568C48.264 81.1015 47.6565 81.0463 47.0491 80.9911C46.6073 80.9359 46.1655 80.9083 45.7238 80.9083C45.1163 80.853 44.5365 80.7978 43.9843 80.7426C43.3216 80.6598 42.4933 80.5769 41.8306 80.3284C41.6097 80.2732 41.4993 80.1904 41.4993 80.0799C41.4993 80.0247 41.4993 79.9971 41.4993 79.9971C41.4993 79.9143 41.4993 79.7486 41.7478 79.5829C41.8582 79.5277 41.9411 79.5001 41.9963 79.5001C42.2724 79.3897 42.5209 79.3068 42.7418 79.2516C43.4044 79.0031 43.9843 78.8374 44.6469 78.7546C46.3036 78.4233 47.8774 77.7606 49.2856 77.2636C50.1967 76.8494 51.1079 76.5181 52.0191 76.3524C55.4152 75.607 58.1487 75.2756 60.7165 75.4413C62.1247 75.4413 63.5328 75.4413 65.2723 75.1928C66.8461 75.0271 68.5028 74.9443 69.9938 74.7786L71.0706 74.6958C71.9542 74.5853 72.7825 74.5577 73.5556 74.613C75.4608 74.7786 77.4488 74.9443 79.4367 75.1928C80.1822 75.3584 80.7621 75.2756 81.3419 75.0271C81.7837 74.8062 82.2255 74.5853 82.6672 74.3645C83.6612 73.7846 84.7381 73.2876 85.8149 72.7078C87.8857 71.4653 89.8737 70.3885 91.9445 69.4773C92.0274 69.3945 92.2758 69.3117 92.2758 69.0632C92.2758 68.9527 92.2482 68.8699 92.193 68.8147L92.1102 68.7318H91.2819C90.6192 68.7318 89.9841 68.7594 89.3767 68.8147C86.4775 68.8975 84.0754 68.7318 81.8389 68.2348C79.5196 67.8207 77.3659 67.5722 75.2951 67.5722C73.1414 67.4893 71.0706 67.3237 68.9998 66.9095C67.7573 66.661 66.3491 66.4125 64.941 65.8327C62.5388 64.9215 60.468 63.7618 58.48 62.4365C56.8234 61.2769 55.1667 60.4485 53.5101 59.7859C52.8474 59.5374 52.1847 59.3717 51.4392 59.6202C51.384 59.6754 51.3012 59.703 51.1907 59.703C51.1079 59.703 51.0251 59.6202 51.0251 59.4545C50.9699 59.4545 50.9699 59.4269 51.0251 59.3717C51.1079 59.0404 51.3564 58.9575 51.7706 58.8747C52.1019 58.8195 52.4056 58.7643 52.6817 58.709C53.5101 58.5434 54.4212 58.3777 55.2496 58.0464C56.9062 57.3837 58.6457 57.218 60.2195 57.0524C62.3732 56.8039 64.1127 56.8867 65.7693 57.3009C66.929 57.6322 68.2543 57.715 69.911 57.6322C73.0586 57.4665 76.2063 57.8807 79.5196 58.9575C81.5076 59.6202 83.2471 60.5314 84.9866 61.8567C85.5388 62.2432 86.0634 62.6022 86.5604 62.9335C87.5544 63.5133 88.4655 64.0932 89.3767 64.8387C90.1222 65.4185 91.0334 65.8327 92.1102 66.164C92.7729 66.3297 93.4631 66.3573 94.181 66.2468C94.2915 66.1916 94.4295 66.1364 94.5952 66.0812C95.0093 65.9983 95.4235 65.9155 95.8377 65.9155C97.4115 65.7498 98.7368 65.0872 99.9793 64.4245L100.228 64.2588C101.167 63.8171 101.94 63.2925 102.547 62.685C103.375 61.8567 104.287 61.194 105.446 60.4485C107.269 59.2889 108.76 58.1292 110.168 56.8867C110.582 56.4725 110.996 56.1412 111.493 55.8099L111.659 55.6442C112.045 55.3681 112.459 55.092 112.901 54.8159C113.122 54.595 113.371 54.4017 113.647 54.2361C114.724 53.4906 115.635 52.6622 116.38 51.7511L117.457 50.5086C118.782 49.0176 120.191 47.4438 121.516 45.8699C122.841 44.2133 124.084 42.391 125.243 40.4858C126.155 38.8291 126.983 37.0068 127.811 35.2673L128.225 34.3562C129.302 32.0368 130.213 30.0489 131.29 28.0609C131.787 27.1497 132.284 26.1557 132.781 25.2445L133.278 24.2505C133.665 23.5327 133.968 22.7319 134.189 21.8484C135.349 17.7068 136.591 14.0621 137.917 10.5831C138.579 8.92646 139.076 7.35264 139.242 5.61315C139.297 5.00571 139.463 4.45349 139.739 3.95649C140.347 2.68639 141.175 1.52672 142.224 0.477508C142.279 0.422286 142.335 0.367063 142.39 0.311841C142.997 -0.129934 143.549 -0.102323 144.046 0.394675C144.212 0.56034 144.35 0.753618 144.461 0.974506C144.571 1.08495 144.681 1.19539 144.792 1.30584C145.068 1.63717 145.234 1.99611 145.289 2.38266C145.344 2.60355 145.372 2.85205 145.372 3.12816C145.289 4.28782 145.123 5.11615 144.709 5.94448C144.378 6.77281 144.129 7.68397 143.964 8.84363C143.715 10.5831 143.218 11.8256 142.473 12.9024C141.644 14.0621 141.037 15.3874 140.65 16.8784C140.485 17.3754 140.264 17.8172 139.988 18.2037C139.325 19.1149 138.828 20.1917 138.414 21.5171C138.303 21.9588 138.193 22.4006 138.082 22.8424C137.862 23.6155 137.668 24.3886 137.503 25.1617C137.171 26.2662 136.757 27.2878 136.26 28.2265C135.929 28.834 135.597 29.4414 135.266 30.0489C134.824 30.7667 134.41 31.5122 134.024 32.2853C133.361 33.5278 132.698 34.5218 131.87 35.3502C131.621 35.5987 131.373 35.93 131.207 36.427C131.042 36.7583 130.545 38.0008 130.379 38.3321C130.269 38.553 130.241 38.8015 130.296 39.0776C130.296 39.1881 130.324 39.2709 130.379 39.3261C130.876 40.403 131.124 41.4798 131.29 42.5566C131.29 42.5566 131.456 43.3021 131.456 43.4678C131.511 43.8543 131.566 44.2409 131.621 44.6274C131.677 45.0692 131.76 45.4834 131.87 45.8699C131.925 46.3117 132.008 46.6983 132.118 47.0296C132.229 47.5266 132.339 48.0236 132.45 48.5206C132.56 49.128 132.643 49.7631 132.698 50.4257C132.754 51.0884 132.781 51.7235 132.781 52.3309C132.781 53.2421 132.864 54.2361 132.947 55.2301C133.057 56.1136 133.057 56.9972 132.947 57.8807C132.864 58.7919 132.864 59.703 133.03 60.697C133.195 62.0224 133.278 63.182 133.195 64.2588C133.112 65.3357 133.03 66.4953 133.03 67.5722C132.974 68.2348 132.919 68.8975 132.864 69.5601C132.864 70.2228 132.919 70.8579 133.03 71.4653C133.14 72.1832 133.361 72.8458 133.692 73.4533C134.079 74.2264 134.355 75.0547 134.521 75.9383C134.686 76.7666 134.935 77.5949 135.183 78.4233C135.294 78.865 135.432 79.3068 135.597 79.7486C135.708 80.2456 135.956 80.6874 136.343 81.0739L136.509 81.2396C136.674 81.4053 136.868 81.5709 137.088 81.7366C138.497 83.1447 139.905 84.7186 141.147 86.7066C141.893 87.7006 142.473 88.8602 143.052 89.937C143.273 90.3236 143.494 90.6825 143.715 91.0139C143.936 91.4556 144.157 91.8974 144.378 92.3392C144.792 93.1675 145.289 93.9959 145.703 94.7414C146.366 95.7353 146.78 96.7293 146.946 97.8062C147.001 97.9718 147.028 98.1375 147.028 98.3032C147.36 100.622 147.277 102.61 146.946 104.35C146.89 104.792 146.835 105.206 146.78 105.592C146.725 105.813 146.697 106.034 146.697 106.255C146.449 107.663 146.366 108.823 146.449 109.9C146.449 110.397 146.449 110.977 146.449 111.722C146.366 112.965 146.366 114.041 146.449 115.118C146.504 115.45 146.531 115.836 146.531 116.278C146.531 116.885 146.366 117.465 146.034 118.017C145.869 118.238 145.675 118.321 145.455 118.266C145.289 118.266 145.178 118.155 145.123 117.935C145.068 117.824 145.04 117.686 145.04 117.52C144.985 117.465 144.958 117.41 144.958 117.355C144.709 116.444 144.461 115.698 144.212 115.118C143.936 114.566 143.687 114.041 143.467 113.544C143.301 113.213 143.135 112.882 142.97 112.55C142.141 110.811 141.23 108.906 139.905 107.166C138.828 105.841 137.917 104.433 136.923 102.859C135.349 100.374 134.355 97.9718 133.858 95.5697L133.775 95.1555C133.72 94.7137 133.665 94.2996 133.609 93.913C133.554 93.6921 133.499 93.4712 133.444 93.2504C133.389 93.0295 133.333 92.781 133.278 92.5049C133.03 90.8482 132.781 89.1915 132.615 87.7006C132.56 86.9275 132.588 86.1819 132.698 85.4641C132.698 85.2984 132.726 85.1327 132.781 84.9671C132.836 84.4701 132.892 83.9731 132.947 83.4761C133.195 82.4821 133.195 81.4053 133.03 80.2456C132.974 79.859 132.892 79.5001 132.781 79.1688C132.671 78.727 132.533 78.3128 132.367 77.9263C132.118 77.0979 131.87 76.2696 131.704 75.4413C131.704 75.3584 131.621 75.2756 131.621 75.2756C131.566 75.2204 131.539 75.1928 131.539 75.1928L131.456 75.11L131.29 75.1928C130.959 75.3584 130.959 75.607 130.959 75.8554C130.959 75.9107 130.931 75.9659 130.876 76.0211C130.379 78.5061 129.716 81.4881 128.722 84.3872C128.446 85.0499 128.391 85.7126 128.557 86.3752C128.612 86.7066 128.722 87.0379 128.888 87.3692C128.888 87.4797 128.916 87.5901 128.971 87.7006C129.026 87.811 129.081 87.8938 129.136 87.949C129.302 88.3356 129.495 88.7222 129.716 89.1087C130.13 90.0199 130.545 90.931 130.959 91.8422C131.401 92.8914 131.732 93.9959 131.953 95.1555C132.201 96.5637 132.284 98.0547 132.118 99.7113C132.036 101.534 131.621 102.942 130.876 104.267C130.655 104.764 130.407 105.261 130.13 105.758C129.744 106.642 129.192 107.415 128.474 108.077C127.646 108.823 126.817 109.734 126.072 110.728L125.492 111.474C124.94 112.247 124.36 113.02 123.752 113.793C123.311 114.345 122.869 114.925 122.427 115.532C121.35 116.858 120.273 118.266 119.279 119.757C119.169 119.923 119.031 120.116 118.865 120.337L118.7 120.502C118.644 120.613 118.561 120.696 118.451 120.751C118.285 120.917 118.12 120.944 117.954 120.834C117.844 120.778 117.761 120.696 117.706 120.585C117.706 120.53 117.706 120.475 117.706 120.42C117.761 120.143 117.816 119.895 117.871 119.674L118.782 116.526C118.893 116.085 119.003 115.67 119.114 115.284C119.362 114.456 119.528 113.544 119.859 112.716C120.605 110.562 121.102 108.492 121.516 106.255C121.93 104.598 122.179 102.859 121.847 101.037C121.847 100.981 121.847 100.899 121.847 100.788C121.792 100.622 121.764 100.484 121.764 100.374V100.043C121.764 97.7233 121.764 95.2383 122.344 92.8362C122.344 92.7258 122.344 92.6429 122.344 92.5877C122.344 92.5325 122.344 92.4772 122.344 92.422V92.0907L122.013 92.2564C121.682 92.422 121.516 92.6705 121.35 92.919L121.267 93.0019C120.273 94.4376 119.141 95.763 117.871 96.9778C117.043 97.7233 116.297 98.4688 115.469 99.2972C114.392 100.457 113.315 101.368 112.239 101.948C111.576 102.362 110.996 102.776 110.333 103.19C109.616 103.687 108.898 104.184 108.18 104.681C107.075 105.454 105.971 106.228 104.866 107.001C104.369 107.332 103.79 107.58 103.293 107.912L102.961 108.077C102.575 108.298 102.161 108.381 101.719 108.326C101.47 108.326 101.305 108.16 101.222 107.995C101.222 107.884 101.249 107.774 101.305 107.663C101.387 107.415 101.636 107.166 101.802 107.001C102.409 106.228 102.961 105.454 103.458 104.681C103.79 104.129 104.121 103.549 104.452 102.942C104.784 102.39 105.143 101.81 105.529 101.202L105.695 100.788C106.109 100.208 106.523 99.5457 106.772 98.883C107.683 96.8122 108.76 94.8242 109.919 92.919C110.333 92.2564 110.913 91.3452 111.659 90.5169C113.978 87.8662 116.877 85.9611 120.191 84.8842C121.626 84.3872 123.117 84.0283 124.664 83.8074C125.658 83.6417 126.32 83.1171 126.652 82.2336L126.734 81.9851C126.79 81.8746 126.845 81.7642 126.9 81.6537C128.06 78.8374 128.888 75.8554 129.633 73.0391C130.213 70.7198 130.462 68.4833 130.545 66.3297C130.545 65.2528 130.628 64.176 130.628 63.182C130.683 62.7955 130.71 62.4089 130.71 62.0224C130.876 59.1232 130.71 56.3069 130.462 53.6562C130.379 53.2421 130.296 52.8279 130.296 52.4966C130.186 52.0548 130.075 51.6682 129.965 51.3369C129.633 50.2601 129.385 49.3489 129.219 48.3549C129.054 47.5266 128.971 46.6983 128.971 45.8699C128.971 45.7043 128.943 45.511 128.888 45.2901C128.805 44.6274 128.557 43.9648 128.308 43.385L128.225 43.2193C128.142 43.0536 128.06 42.888 127.894 42.888C127.728 42.888 127.59 42.9432 127.48 43.0536C127.259 43.2745 127.066 43.523 126.9 43.7991C125.575 45.8699 124.581 48.1064 124.084 50.5086C123.338 53.6562 122.593 56.3069 121.682 58.709C121.35 59.5374 121.102 60.4485 120.77 61.3597C120.605 61.9671 120.411 62.5746 120.191 63.182L120.025 63.5962C119.694 64.5902 119.362 65.667 118.865 66.661C117.54 69.7258 116.132 72.7078 114.889 75.2756C114.558 75.9935 114.199 76.7114 113.812 77.4293C113.481 78.0919 113.15 78.7546 112.818 79.4173C112.045 81.0187 111.107 82.5925 110.002 84.1387C108.18 86.6237 106.385 89.0811 104.618 91.5109C103.872 92.5877 103.044 93.7474 102.133 94.7414C101.912 95.0175 101.691 95.2936 101.47 95.5697L101.305 95.8182C100.808 96.4808 100.311 97.1435 99.8137 97.8062C99.7584 97.8614 99.7032 97.9442 99.648 98.0547C99.4823 98.2203 99.2338 98.4688 99.151 98.8002C98.7368 99.7942 98.3227 100.788 97.9085 101.699L97.66 102.279C97.3287 102.942 97.4115 103.522 97.4115 104.019C97.4115 104.295 97.4391 104.571 97.4943 104.847C97.66 105.592 97.9085 106.338 98.157 107.083C98.3227 107.58 98.5712 108.077 98.9853 108.574C99.5928 109.292 100.311 109.955 101.139 110.562C101.967 111.142 102.63 111.888 103.21 112.799C103.872 113.793 104.535 114.704 105.198 115.698L105.446 116.112C106.606 117.769 107.6 119.591 108.428 121.082C108.925 121.911 109.339 122.849 109.671 123.899C110.085 125.224 110.416 126.632 110.665 127.957C110.775 128.51 110.886 129.034 110.996 129.531C110.996 129.642 111.024 129.78 111.079 129.945C111.134 130.332 111.217 130.718 111.327 131.105C111.604 131.989 111.824 132.872 111.99 133.756C112.211 135.026 112.321 136.323 112.321 137.649C112.377 139.14 112.404 140.603 112.404 142.039C112.404 143.364 112.432 144.69 112.487 146.015C112.487 146.346 112.459 146.678 112.404 147.009C112.349 147.175 112.211 147.285 111.99 147.34C111.824 147.395 111.686 147.34 111.576 147.175C111.41 146.954 111.272 146.678 111.162 146.346C110.499 145.021 109.754 143.447 108.594 142.122C108.373 141.846 108.152 141.487 107.931 141.045C106.937 139.471 106.192 137.732 105.446 135.744C105.225 135.247 105.032 134.75 104.866 134.253C104.535 133.176 104.121 132.016 103.624 130.939C102.878 129.448 102.133 127.792 101.305 125.887C101.194 125.555 101.056 125.251 100.89 124.975C100.559 124.147 100.145 123.236 99.8965 122.325C99.7308 121.579 99.4823 120.668 99.3166 119.84C99.2062 119.122 99.151 118.459 99.151 117.852C99.0958 117.3 99.0682 116.747 99.0682 116.195C99.0129 115.312 98.9025 114.511 98.7368 113.793C98.5712 112.854 98.3226 111.971 97.9913 111.142V111.059C97.8256 110.728 97.7428 110.397 97.4943 110.148C97.3839 109.983 97.2734 109.9 97.163 109.9C97.0802 109.9 96.7488 109.9 96.7488 110.314C96.666 111.391 96.7488 112.385 96.8317 113.213C97.0802 114.953 96.9145 116.609 96.7488 118.1C96.666 119.426 96.5003 120.751 96.3347 121.993C96.2794 122.49 96.1966 122.987 96.0862 123.484C96.0033 124.478 95.9205 125.39 95.9205 126.301C96.0033 127.957 96.0033 129.697 96.0033 131.353C95.9481 132.016 95.9205 132.651 95.9205 133.259C95.9205 134.474 95.7272 135.688 95.3407 136.903L95.175 137.317C94.9541 138.091 94.7332 138.836 94.5123 139.554C94.0154 141.376 93.2698 142.867 92.2758 144.193C91.9445 144.579 91.696 144.966 91.5304 145.352C90.8677 146.595 90.1222 147.92 89.4595 149.08C88.3827 151.068 86.8917 152.807 85.6492 154.464C85.594 154.519 85.5112 154.574 85.4007 154.63C84.9866 155.127 84.7381 154.961 84.6552 154.878C84.5448 154.823 84.4896 154.74 84.4896 154.63C84.4343 154.519 84.4343 154.353 84.4896 154.133C84.7657 153.359 84.9313 152.586 84.9866 151.813C85.1522 150.488 85.4836 149.245 85.8149 148.086C86.2014 146.871 86.3119 145.628 86.1462 144.358C85.8149 142.287 86.0634 140.299 86.3119 138.477C86.7261 135.909 86.9745 133.838 86.9745 131.851C86.9745 130.608 87.0574 129.366 87.0574 128.206C87.0574 127.543 87.085 126.908 87.1402 126.301C87.1402 125.058 87.4715 123.816 88.0514 122.408C88.714 120.972 89.57 119.674 90.6192 118.514C92.1102 116.858 93.1042 114.953 94.0982 113.13C94.3467 112.633 94.4295 112.219 94.4295 111.805V111.639C94.4847 110.48 94.54 109.348 94.5952 108.243C94.5952 108.022 94.5952 107.829 94.5952 107.663C94.54 107.553 94.5123 107.442 94.5123 107.332C94.4571 106.835 94.4295 106.31 94.4295 105.758L94.3467 105.344C94.3467 105.289 94.3743 105.178 94.4295 105.013C94.4295 104.847 94.4295 104.681 94.4295 104.516C94.3743 104.35 94.2915 104.24 94.181 104.184C93.684 103.936 93.3527 104.35 93.187 104.516C93.1318 104.626 93.0766 104.709 93.0213 104.764C92.7452 104.985 92.5244 105.206 92.3587 105.427C92.2482 105.537 92.1102 105.648 91.9445 105.758L91.8617 105.924C90.702 107.001 89.5424 108.077 88.2999 109.071C86.0634 110.645 83.9926 112.468 82.0046 114.124C81.5076 114.621 80.983 115.091 80.4308 115.532C79.5196 116.361 78.6084 117.189 77.9458 118.183C77.0346 119.757 75.9578 121.165 74.9638 122.49L74.5496 123.07C73.6385 124.23 72.6445 125.472 71.7333 126.715C71.3467 127.267 70.9602 127.792 70.5736 128.289C69.911 129.2 69.2483 130.194 68.5028 131.105C66.929 133.093 65.6865 134.915 64.8581 136.986C64.8029 137.097 64.7477 137.235 64.6925 137.4L64.6097 137.483C64.0298 138.56 63.7813 139.802 63.6985 141.293C63.6985 141.79 63.7261 142.315 63.7813 142.867C63.7813 143.199 63.7813 143.502 63.7813 143.778C63.7813 143.944 63.7813 144.11 63.7813 144.275C63.8366 144.607 64.0022 144.938 64.2783 145.269C64.444 145.546 64.6373 145.822 64.8581 146.098C65.5208 147.009 65.935 147.92 66.1006 148.914C66.2663 149.411 66.3768 149.908 66.432 150.405C66.7633 151.896 66.7633 153.304 66.6805 154.547C66.6253 154.823 66.5977 155.127 66.5977 155.458L66.5148 156.452C66.2663 158.523 66.1007 160.676 65.7693 162.747C65.5208 164.072 65.1895 165.066 64.8581 165.978C64.6373 166.419 64.444 166.861 64.2783 167.303C63.6985 168.628 63.1187 170.036 62.5388 171.527C61.6277 173.847 60.7994 175.669 59.7225 177.326C58.48 179.397 57.2375 180.97 55.995 182.379C55.7466 182.627 55.5809 182.876 55.2496 182.958C55.0839 183.014 54.9458 183.014 54.8354 182.958C54.6697 182.903 54.5869 182.793 54.5869 182.627C54.5869 182.627 54.5869 182.599 54.5869 182.544C54.5869 182.296 54.5869 181.964 54.6697 181.633C54.7802 180.97 54.8906 180.335 55.001 179.728C55.1115 179.01 55.2219 178.32 55.3324 177.657C55.5809 176.497 55.5809 175.255 55.4152 173.847C55.36 173.018 55.3048 172.218 55.2496 171.445L55.1667 170.616C54.9182 168.131 54.9182 165.481 55.001 162.416C55.001 161.588 55.0839 160.511 55.3324 159.517C56.0779 156.038 57.1547 152.807 58.5629 149.908C59.1427 148.666 59.6397 147.423 60.1367 146.181L60.2195 146.015C60.7165 144.745 60.9926 143.392 61.0479 141.956C61.0479 141.128 61.1307 140.217 61.2963 139.388C61.2963 139.278 61.2963 139.167 61.2963 139.057C61.2963 138.891 61.2135 138.726 60.8822 138.643H60.7993L60.3023 139.057C60.0815 139.333 59.833 139.609 59.5569 139.885C58.2315 141.376 56.9062 142.784 55.3324 144.027C54.7525 144.441 54.4212 144.855 54.1727 145.269C53.3444 146.346 52.3504 147.175 51.5221 147.754C50.2796 148.583 49.2027 149.66 48.0431 151.233C45.8066 154.133 43.2388 156.949 39.9255 160.097C39.7046 160.317 39.4285 160.566 39.0971 160.842C37.6061 161.919 35.8667 163.161 34.0443 164.321C32.719 165.149 31.3937 165.729 30.1512 166.143C27.9147 166.806 25.8439 167.717 24.0215 168.463C22.1992 169.291 20.3769 169.871 18.5546 170.368C18.2232 170.451 17.8919 170.451 17.5606 170.533H17.3949C17.0636 170.616 16.8979 170.368 16.8979 170.285C16.8427 170.285 16.8151 170.257 16.8151 170.202C16.8151 170.036 16.8703 169.898 16.9807 169.788C17.1464 169.622 17.3121 169.484 17.4777 169.374C17.533 169.263 17.6158 169.181 17.7262 169.125C18.0023 168.849 18.2785 168.573 18.5546 168.297C19.2172 167.717 19.8799 167.054 20.5426 166.392C21.5365 165.315 22.5305 164.487 23.6074 163.907C24.6014 163.327 25.4297 162.499 26.1752 161.422C26.6722 160.594 27.252 159.848 27.9147 158.937C30.0684 155.955 32.9675 153.387 36.8606 151.151C39.0143 149.908 41.2508 148.914 43.1559 148.086C43.4873 147.92 43.8186 147.782 44.1499 147.672C45.7238 147.009 47.3804 146.263 49.1199 145.766C50.1139 145.518 50.9422 145.021 51.6049 144.275C52.4332 143.281 53.2615 142.287 54.1727 141.376C55.0839 140.548 55.995 139.637 56.8234 138.808C57.6517 138.035 58.4524 137.262 59.2255 136.489L59.8054 135.909C61.1307 134.584 62.456 133.259 63.6985 131.933C64.1955 131.271 64.7201 130.636 65.2723 130.028C66.5148 128.703 67.6745 127.295 68.917 125.969C70.2423 124.561 71.3191 123.236 72.2303 121.828C72.8377 120.999 73.4176 120.143 73.9698 119.26L74.4668 118.597C75.2951 117.382 76.2891 116.25 77.4488 115.201C79.1883 113.627 81.0106 112.136 82.6672 110.811C82.8881 110.59 83.1366 110.397 83.4127 110.231C84.7381 109.154 86.0634 108.077 87.223 106.835C88.5484 105.427 89.6252 104.267 90.6192 103.19C90.8677 102.859 91.1162 102.528 91.2819 102.196L91.4475 102.031C91.5304 101.865 91.6132 101.616 91.5304 101.451C91.4475 101.037 91.1162 101.119 91.0334 101.119L90.9505 101.202C89.6252 101.368 88.217 101.782 86.5604 102.445C84.8209 103.273 82.9157 103.853 80.8449 104.35C80.0166 104.571 79.1883 104.819 78.3599 105.095C77.8077 105.261 77.2555 105.399 76.7033 105.51C75.7093 105.841 74.9638 106.338 74.4668 107.249C73.8869 108.243 73.0586 109.154 71.899 110.148C71.3467 110.59 70.8221 111.059 70.3251 111.556C69.7729 112.053 69.2207 112.523 68.6685 112.965C68.1163 113.462 67.7297 114.014 67.5088 114.621C67.4536 114.842 67.3708 115.063 67.2603 115.284C66.432 117.686 64.941 119.426 62.953 120.585C61.0479 121.662 59.3084 122.408 57.6517 122.905C57.1547 123.015 56.6853 123.125 56.2435 123.236L55.7465 123.319C55.1943 123.429 54.6421 123.567 54.0899 123.733C52.9302 123.981 51.6877 124.313 50.4452 124.478C46.9663 125.141 43.3216 125.638 39.8426 126.218L39.4285 126.301C38.683 126.384 37.9375 126.466 37.2748 126.466L36.695 126.549C36.3636 126.549 36.0599 126.494 35.7838 126.384C35.6734 126.328 35.5905 126.218 35.5353 126.052C35.5353 125.942 35.5905 125.831 35.701 125.721C35.7562 125.666 35.8666 125.583 36.0323 125.472C36.4189 125.251 36.7778 125.058 37.1091 124.893C39.3456 123.899 41.2508 122.822 43.0731 121.496C43.4597 121.22 43.8738 120.944 44.3156 120.668C45.5581 119.84 46.8834 118.929 48.0431 117.852C48.3744 117.576 48.6781 117.327 48.9543 117.106C50.2796 115.947 51.4392 115.118 52.7646 114.538C53.9242 114.041 55.1667 113.544 56.8234 112.965C58.2315 112.468 59.7225 111.971 61.1307 111.556L62.2904 111.142C62.6217 111.059 63.0358 110.977 63.3672 110.894C65.6037 110.48 67.7573 109.568 69.9938 107.995C70.2423 107.746 70.4908 107.58 70.7393 107.332L70.8221 107.249C70.905 107.166 71.0706 107.001 71.0706 106.752C71.0154 106.697 70.9602 106.614 70.905 106.504L70.8221 106.421L69.911 106.586C69.3587 106.697 68.8065 106.835 68.2543 107.001C66.0178 107.498 63.5328 107.995 61.0479 108.243C60.1367 108.326 59.2255 108.409 58.3144 108.657C56.6577 108.989 54.6697 109.32 52.6817 109.403C51.3012 109.403 49.893 109.596 48.4572 109.983C46.9663 110.397 45.3924 110.645 44.0671 110.811C42.659 110.977 41.4993 111.391 40.4224 111.971C39.0971 112.799 37.6061 113.627 35.7838 113.876C35.5629 113.931 35.342 113.986 35.1211 114.041C33.4645 114.621 31.725 114.87 30.3997 114.953C27.3349 115.284 24.1872 114.87 20.9567 113.876C18.9687 113.213 16.8979 112.385 14.9099 111.308C12.5906 110.065 10.1056 109.071 7.70345 108.243L6.87513 107.912C5.63264 107.415 4.30731 107.001 3.06481 106.586C2.45737 106.366 1.84993 106.145 1.24249 105.924H1.07683C0.855942 105.813 0.662668 105.731 0.497002 105.675C0.248504 105.592 0.0828329 105.427 0 105.261C0 105.206 0 105.151 0 105.095ZM48.7057 108.574C48.3744 108.574 48.0431 108.574 47.7118 108.574C47.0491 108.63 46.3588 108.657 45.6409 108.657C45.1992 108.657 44.7298 108.657 44.2328 108.657C44.0671 108.657 43.9014 108.657 43.7358 108.657C43.0179 108.602 42.4105 108.326 41.9135 107.829C41.4993 107.415 41.0023 106.918 40.5053 106.421C39.9531 105.758 39.4008 105.123 38.8486 104.516C38.0203 103.522 37.1091 102.61 36.2808 101.616C34.7898 99.9598 32.9675 98.5517 30.9795 97.4748C30.5929 97.2539 30.1788 97.0054 29.737 96.7293C29.1848 96.398 28.605 96.0667 27.9975 95.7353C26.6722 95.0175 25.2088 94.6033 23.6074 94.4928C20.1284 94.2444 16.4837 94.0787 12.6734 94.1615C12.2316 94.1615 11.7623 94.1615 11.2653 94.1615C11.0444 94.1615 10.7959 94.1615 10.5198 94.1615C10.3541 94.1615 10.2437 94.1891 10.1884 94.2443C10.1056 94.3272 10.1056 94.41 10.1056 94.5757C10.1056 94.7413 10.1884 94.8242 10.2713 94.8242C10.3265 94.8794 10.3817 94.9346 10.437 94.9898C11.7623 95.404 13.0048 96.1495 14.1644 96.895C14.4405 97.0607 14.7167 97.2263 14.9928 97.392C15.6002 97.7786 16.2352 98.1651 16.8979 98.5517C17.5053 98.883 18.1404 99.2419 18.8031 99.6285C20.1284 100.457 21.6194 101.119 23.0275 101.782C23.635 102.003 24.2424 102.252 24.8499 102.528C26.0648 103.135 27.2244 103.743 28.3289 104.35C29.737 105.013 31.3108 105.758 33.1332 106.089C33.4645 106.172 33.7958 106.255 34.1272 106.421C34.2376 106.476 34.2928 106.559 34.2928 106.669C34.348 106.725 34.348 106.78 34.2928 106.835C34.2928 107.001 34.1272 107.166 33.9615 107.166C33.7958 107.166 33.6025 107.166 33.3816 107.166C32.6638 107.111 31.9459 107.083 31.228 107.083C29.4057 106.918 27.5834 106.835 25.761 106.669C24.6014 106.586 23.4417 106.504 22.282 106.421C21.1224 106.255 19.7971 106.172 18.5546 106.089C16.1524 105.924 13.5846 105.758 11.0996 105.261C9.99516 105.04 8.89073 105.068 7.78629 105.344C7.20646 105.427 6.5438 105.51 5.88114 105.592C5.60503 105.648 5.32892 105.675 5.05281 105.675H4.88714L4.72147 106.172L5.63264 106.504C6.12964 106.669 6.59902 106.863 7.0408 107.083C7.53779 107.249 8.0624 107.442 8.61462 107.663C10.8511 108.492 13.1704 109.403 15.3241 110.562C16.8979 111.391 18.5546 112.053 20.1284 112.633C22.1164 113.462 24.1872 113.876 26.3409 114.124C29.0743 114.373 31.3937 114.207 33.5473 113.627C34.0995 113.462 34.6241 113.324 35.1211 113.213C35.6181 113.047 36.1152 112.909 36.6122 112.799C37.7718 112.468 38.7658 112.053 39.5941 111.474C40.9194 110.645 42.4104 110.148 44.1499 109.983C45.1439 109.817 46.1379 109.651 47.1319 109.403C47.5185 109.292 47.9326 109.21 48.3744 109.154C48.4849 109.154 48.5677 109.127 48.6229 109.071C48.6781 109.016 48.7334 108.989 48.7886 108.989L48.7057 108.574ZM63.6985 135.247C63.6433 135.412 63.5881 135.606 63.5328 135.826C63.4224 135.992 63.3119 136.185 63.2015 136.406C63.0911 136.627 63.0082 136.848 62.953 137.069C62.2075 138.56 61.8762 139.885 61.8762 141.293C61.959 143.364 61.462 145.352 60.5509 147.506L60.3852 148.003C59.5569 149.742 58.8114 151.648 58.0659 153.47C57.3204 155.375 56.6577 157.446 56.2435 159.931C55.995 160.842 55.995 161.753 55.995 162.664L55.9122 162.913C55.8294 165.149 55.9122 167.469 56.1607 170.451V171.113C56.2435 171.776 56.2435 172.521 56.4092 173.184C56.5749 174.924 56.5749 176.663 56.2435 178.651C56.1883 178.982 56.1331 179.286 56.0779 179.562V179.645C56.0227 179.7 55.995 179.783 55.995 179.894C56.0503 180.059 56.1607 180.17 56.3264 180.225C56.6577 180.308 56.8234 180.059 56.9062 179.894C59.0599 176.994 60.468 174.509 61.3792 172.024C61.8762 170.699 62.456 169.457 63.0358 168.131L63.2843 167.469C64.2783 165.232 64.941 162.83 65.1895 160.345L65.2723 159.682C65.438 157.777 65.6865 155.706 65.7693 153.718C65.8798 152.78 65.8246 151.786 65.6037 150.736C65.4932 149.853 65.2447 148.942 64.8581 148.003C64.6097 147.257 64.1127 146.512 63.6985 146.015C63.2567 145.463 62.9806 144.91 62.8702 144.358C62.8149 144.027 62.8149 143.696 62.8702 143.364C62.8702 142.922 62.8702 142.481 62.8702 142.039C62.8702 141.818 62.8702 141.597 62.8702 141.376C62.8702 139.968 63.2015 138.643 63.8642 137.152C64.941 134.75 66.432 132.347 68.42 129.863C68.917 129.283 69.3312 128.703 69.7453 128.04C70.0214 127.654 70.3251 127.267 70.6565 126.881C72.1474 124.893 73.6385 122.932 75.1295 120.999C75.7921 120.116 76.3995 119.205 76.9518 118.266V118.183C77.0346 118.017 77.2003 117.769 77.1174 117.355V116.858L76.7861 117.189C76.1235 117.852 75.6264 118.514 75.2123 119.094C74.4392 120.199 73.6937 121.303 72.9758 122.408C72.037 123.788 70.9602 125.113 69.7453 126.384C68.0058 128.289 66.2663 130.194 64.6925 132.182C63.6985 133.341 62.6217 134.418 61.5448 135.412C61.1583 135.854 60.7441 136.268 60.3023 136.655C59.3083 137.814 58.1487 138.808 57.0719 139.885C56.4092 140.548 55.7465 141.211 55.0839 141.873C54.6973 142.26 54.3108 142.646 53.9242 143.033C53.8138 143.199 53.7033 143.337 53.5929 143.447C53.4272 143.613 53.2892 143.806 53.1787 144.027L53.0131 144.193C51.7706 145.684 50.4452 146.512 48.8714 146.926C47.3804 147.257 45.9723 147.92 44.6469 148.5C44.3156 148.666 43.9843 148.804 43.653 148.914C42.7694 149.356 41.8858 149.77 41.0023 150.157C40.5053 150.377 40.0359 150.598 39.5941 150.819C36.0323 152.476 32.8847 154.795 30.0683 157.777C28.9087 159.02 27.9975 160.345 27.252 161.505C26.3409 162.996 25.264 164.072 23.9387 164.818C22.9447 165.315 22.1164 165.978 21.2881 166.889C20.9015 167.331 20.5149 167.717 20.1284 168.048C19.9627 168.269 19.7971 168.463 19.6314 168.628L19.4657 168.711L19.5486 168.877C19.7971 169.291 20.1284 169.125 20.2941 169.042C21.2881 168.794 22.1992 168.38 23.1104 167.966C23.5522 167.745 24.0215 167.551 24.5185 167.386C24.629 167.331 24.7394 167.275 24.8499 167.22C24.9051 167.165 24.9879 167.11 25.0984 167.054C25.8439 166.806 26.5894 166.557 27.252 166.226C28.1632 165.895 29.1572 165.481 30.1512 165.149C31.4765 164.818 32.8018 164.155 34.21 163.161L34.5413 162.996C35.6182 162.25 36.7778 161.422 37.9375 160.594C38.5449 160.152 39.0971 159.71 39.5941 159.268C42.4104 156.618 44.8126 153.967 46.9663 151.151C47.5461 150.322 48.2087 149.577 48.8714 148.831C49.0371 148.583 49.2028 148.334 49.4513 148.251C50.2796 147.92 50.9422 147.34 51.6049 146.76C51.881 146.54 52.1571 146.319 52.4332 146.098C52.7646 145.849 53.0131 145.435 53.3444 145.104C53.7309 144.496 54.1727 143.999 54.6697 143.613C56.3264 142.287 57.6517 140.796 59.0598 139.305C60.2195 138.035 61.4068 136.765 62.6217 135.495C62.8426 135.219 63.0358 135.026 63.2015 134.915C63.3119 134.805 63.45 134.805 63.6157 134.915C63.6709 134.971 63.6985 135.053 63.6985 135.164C63.6985 135.164 63.6985 135.191 63.6985 135.247ZM73.2243 105.841C73.1691 105.951 73.1139 106.062 73.0586 106.172C72.8377 106.338 72.6445 106.531 72.4788 106.752C71.9818 107.249 71.4848 107.829 70.9878 108.243C68.9998 109.817 67.0947 110.811 65.0238 111.308C64.3059 111.474 63.5604 111.694 62.7873 111.971C60.3023 112.799 57.3204 113.793 54.4212 114.704C52.875 115.256 51.4116 116.112 50.0311 117.272C49.755 117.493 49.4788 117.741 49.2027 118.017C48.9266 118.294 48.6229 118.57 48.2916 118.846C47.5461 119.426 46.7178 120.088 45.8894 120.668C45.3372 121.055 44.785 121.441 44.2328 121.828C42.7418 122.822 41.1679 123.816 39.5941 124.727C39.5113 124.727 39.4285 124.81 39.4285 124.893L39.3456 125.058L39.4285 125.224C39.677 125.39 39.8426 125.39 40.0083 125.307C40.0083 125.307 41.9135 125.058 42.8246 124.893C45.0611 124.478 47.3804 124.147 49.6997 123.733C51.1907 123.484 52.7646 123.153 54.6697 122.739C56.1607 122.325 57.4032 121.993 58.48 121.662C59.474 121.414 60.3023 120.917 61.2135 120.585C61.4344 120.475 61.6553 120.364 61.8762 120.254C63.2843 119.591 64.3612 118.432 65.1895 117.52C65.6865 116.858 66.0178 116.112 66.3492 115.367L66.432 115.035C66.5424 114.815 66.6253 114.621 66.6805 114.456L66.7633 114.207C67.0394 113.434 67.5088 112.799 68.1715 112.302C69.414 111.308 70.4908 110.314 71.6505 109.32L71.9818 108.906C72.4788 108.492 73.1414 107.829 73.6384 107.001C74.3839 105.675 75.5436 104.847 77.5316 104.433C79.8509 103.853 81.9217 103.356 83.9097 102.693C84.3239 102.528 84.7381 102.362 85.0694 102.279C87.1402 101.285 89.3767 100.622 91.8617 100.125C91.9721 100.125 92.1102 100.125 92.2758 100.125C92.4415 100.125 92.6072 100.291 92.6072 100.457C92.6072 100.457 92.6072 100.484 92.6072 100.54C92.69 100.871 92.6072 101.119 92.4415 101.534C92.1102 102.307 91.6132 103.08 90.9505 103.853C90.564 104.295 90.1774 104.737 89.7909 105.178C88.9625 106.172 88.1342 107.166 87.223 107.995C87.1678 108.05 87.1126 108.133 87.0574 108.243C87.0022 108.298 86.9469 108.354 86.8917 108.409L86.4775 109.071L87.1402 108.74C87.5544 108.574 87.8029 108.409 88.0514 108.243L88.1342 108.16C90.6192 106.089 92.5244 104.267 94.0982 102.362C94.2638 102.141 94.4571 101.92 94.678 101.699C94.7884 101.589 94.8989 101.478 95.0093 101.368C95.2578 101.202 95.4235 101.202 95.5892 101.285C95.6996 101.34 95.7548 101.423 95.7548 101.534C95.7548 101.589 95.7548 101.644 95.7548 101.699C95.7548 101.92 95.6996 102.169 95.5892 102.445C95.2578 103.439 95.2578 104.516 95.175 105.592V105.758C95.175 105.869 95.175 106.007 95.175 106.172C95.175 106.338 95.2302 106.448 95.3407 106.504V106.586H95.4235C95.672 106.752 95.8377 106.586 95.9205 106.504C95.9757 106.504 96.0033 106.476 96.0033 106.421C96.1138 106.421 96.1966 106.421 96.2518 106.421C96.3623 106.421 96.4451 106.421 96.5003 106.421C96.7488 106.421 96.8317 106.338 96.8317 106.255C96.9421 106.145 96.9697 106.007 96.9145 105.841V105.758C96.9145 105.592 96.8869 105.454 96.8317 105.344C96.8317 105.234 96.804 105.123 96.7488 105.013V104.847C96.5003 103.687 96.666 102.61 97.163 101.534C97.4943 100.705 97.9085 99.7942 98.3227 98.8002C98.4883 98.2479 98.792 97.7509 99.2338 97.3092C99.7308 96.7293 100.145 96.1495 100.725 95.3212C101.001 94.8794 101.332 94.4376 101.719 93.9959C102.381 93.2504 102.878 92.5049 103.375 91.8422C104.535 90.2408 105.695 88.6669 106.854 87.1207C107.738 85.8506 108.649 84.5805 109.588 83.3104C110.416 82.1507 111.162 80.9083 111.824 79.5829C112.321 78.6442 112.818 77.6778 113.315 76.6838C114.061 75.1928 114.889 73.619 115.635 72.0451C116.96 69.2288 118.037 66.9095 118.948 64.4245C119.114 63.8723 119.279 63.3477 119.445 62.8507C119.555 62.5746 119.666 62.2985 119.776 62.0224C119.887 61.6358 119.997 61.2216 120.108 60.7799C120.439 59.8687 120.77 58.8747 121.102 57.9635C121.93 55.8927 122.593 53.5734 123.09 51.0884C123.587 48.9348 124.332 46.8639 125.409 44.8759C125.74 44.0476 126.32 43.385 126.734 42.6395C126.955 42.3633 127.176 42.0596 127.397 41.7283C127.507 41.5626 127.645 41.4522 127.811 41.397C128.06 41.397 128.225 41.4798 128.391 41.6455C128.722 41.9216 128.943 42.2805 129.054 42.7223C129.109 43.1088 129.192 43.4954 129.302 43.882C129.468 44.3789 129.634 44.9588 129.716 45.5386C129.827 46.0908 129.882 46.6154 129.882 47.1124C129.882 47.3885 129.882 47.6646 129.882 47.9408C129.965 48.3549 130.13 48.7691 130.213 49.2661L130.296 49.3489C130.627 50.4257 130.876 51.4197 131.042 52.3309C131.097 52.8831 131.152 53.4077 131.207 53.9047C131.318 54.7331 131.401 55.5614 131.456 56.3897C131.456 56.7763 131.483 57.1904 131.539 57.6322V57.715C131.539 57.715 131.539 57.7427 131.539 57.7979C131.594 57.9635 131.704 58.1016 131.87 58.212L132.118 58.3777L132.201 58.1292C132.367 57.4113 132.395 56.721 132.284 56.0584C132.201 54.9816 132.118 53.8219 132.036 52.7451C132.036 51.8339 131.953 50.9227 131.87 50.0116V49.8459C131.87 49.625 131.842 49.4041 131.787 49.1833C131.787 49.0728 131.76 48.9624 131.704 48.8519C131.539 48.1893 131.373 47.3609 131.207 46.4498C131.042 45.6767 130.904 44.9036 130.793 44.1304L130.71 43.5506C130.71 43.385 130.683 43.2469 130.628 43.1365C130.517 42.4738 130.351 41.8111 130.13 41.1485C130.048 40.6515 129.882 40.2373 129.468 39.906C129.357 39.7403 129.302 39.5746 129.302 39.409C129.247 39.2433 129.247 39.05 129.302 38.8291C129.385 38.5806 129.468 38.3321 129.551 38.1665C129.661 37.8904 129.772 37.6419 129.882 37.421C129.992 37.1449 130.103 36.8412 130.213 36.5098C130.489 35.9024 130.821 35.3502 131.207 34.8532C132.036 33.8592 132.781 32.7823 133.444 31.457C133.858 30.7944 134.189 30.1317 134.603 29.469C134.714 29.2481 134.852 29.0272 135.018 28.8064C135.929 27.2325 136.591 25.4102 137.171 23.0909C137.42 21.8484 137.751 20.6059 138.331 19.4462C138.579 18.9492 138.828 18.4522 139.159 18.0381C139.435 17.5963 139.656 17.0993 139.822 16.5471C140.236 15.0561 140.816 13.8136 141.561 12.7368C142.39 11.66 142.887 10.3346 143.052 8.7608C143.218 7.60114 143.549 6.60714 143.964 5.69598C144.295 4.9781 144.461 4.17738 144.461 3.29383C144.516 3.07294 144.516 2.87966 144.461 2.714C144.405 2.43789 144.323 2.217 144.212 2.05133C143.881 1.4715 143.549 1.05734 143.218 1.05734C142.887 0.974506 142.638 1.223 142.141 1.80283C141.727 2.38266 141.313 2.9625 140.899 3.62516C140.457 4.28782 140.209 4.9781 140.153 5.69598C139.988 7.43547 139.408 9.09213 138.662 10.9145C137.337 14.3934 136.177 18.0381 135.018 22.0969C134.769 23.0909 134.438 24.0021 133.941 24.8304L133.609 25.493C132.864 26.984 132.036 28.475 131.207 29.966C130.986 30.3526 130.793 30.7391 130.628 31.1257L129.965 32.5338C128.805 35.1017 127.646 37.6695 126.32 40.2373C125.161 42.3081 123.752 44.3789 121.764 46.7811C120.77 47.8579 119.776 49.0176 118.865 50.0944C118.423 50.5914 117.982 51.116 117.54 51.6682C117.429 51.7235 117.347 51.8063 117.291 51.9167L117.043 52.2481L117.291 52.3309C117.623 52.5794 117.871 52.3309 117.954 52.1652C119.114 51.0056 120.273 49.8459 121.35 48.6863C121.626 48.3549 121.93 48.0236 122.261 47.6923L122.427 47.5266C122.537 47.3609 122.648 47.2229 122.758 47.1124C122.924 46.9468 123.09 47.0296 123.173 47.0296C123.283 47.0848 123.338 47.1677 123.338 47.2781C123.393 47.3885 123.393 47.4714 123.338 47.5266C123.228 47.8027 123.117 48.0236 123.007 48.1893C122.51 49.0176 122.179 49.9288 121.764 50.7571C121.709 50.978 121.626 51.1989 121.516 51.4197C120.936 52.8279 120.522 54.3189 120.108 55.8099C119.942 56.5278 119.749 57.2457 119.528 57.9635C119.279 58.7919 118.948 59.6202 118.534 60.6142C117.954 62.1052 117.457 63.5962 116.877 65.0043V65.0872C116.435 66.2468 115.994 67.4341 115.552 68.649C115.11 69.8639 114.668 71.0787 114.227 72.2936C113.398 74.5301 112.239 76.5181 111.327 78.0919C110.085 80.2456 108.511 82.2336 107.103 84.1387C106.44 84.9671 105.805 85.7678 105.198 86.5409C103.458 88.7774 101.719 91.0967 100.062 93.4989C99.2338 94.5757 98.3226 95.4868 97.5771 96.398C96.9145 97.0607 96.0033 97.6405 94.7608 98.0547C93.5183 98.5517 92.2758 98.883 90.5364 99.2972C90.1498 99.4076 89.7632 99.518 89.3767 99.6285C87.8857 99.9598 86.3947 100.291 85.0694 100.954C84.9037 101.064 84.7105 101.119 84.4896 101.119L84.3239 101.202C83.6612 101.423 82.9986 101.644 82.3359 101.865C80.7621 102.445 79.1883 102.942 77.6144 103.439C74.7981 104.267 72.2303 104.598 69.6625 104.433C68.9998 104.433 68.2543 104.35 67.3431 104.101C66.0178 103.825 64.6925 103.522 63.3672 103.19L61.462 102.776C61.3516 102.776 61.2687 102.776 61.2135 102.776C61.0478 102.721 60.8546 102.666 60.6337 102.61C59.8882 102.61 59.2255 102.279 58.5629 102.031C58.3972 101.975 58.2315 101.92 58.0659 101.865C57.5689 101.616 57.2375 101.285 56.8234 100.871C55.8846 99.9874 54.9458 99.0763 54.0071 98.1375C52.7646 96.895 51.1079 95.8182 49.0371 94.9898C48.1259 94.5757 47.0491 94.2444 46.2208 93.9959C45.2268 93.6645 44.3156 93.3332 43.4873 92.919C41.6649 92.0907 39.8426 91.5109 38.0203 90.931C37.6337 90.7654 37.2472 90.6273 36.8606 90.5169C35.1212 89.937 33.2988 89.44 31.5593 89.0259C30.3168 88.6945 28.9915 88.3632 27.749 87.949C26.5341 87.6177 25.3469 87.2864 24.1872 86.9551L23.6074 86.7894C23.4417 86.7342 23.276 86.6789 23.1104 86.6237L22.6962 86.5409L22.3649 87.0379L22.6134 87.2036C23.276 87.949 23.9387 88.6945 24.767 89.2744C26.4237 90.5169 28.1632 91.8422 29.8198 93.2504C30.4825 93.8302 31.1452 94.2443 31.8907 94.6585C32.1116 94.769 32.3324 94.907 32.5533 95.0727C32.719 95.1279 32.857 95.2107 32.9675 95.3212C33.3816 95.5697 33.7958 95.8182 34.21 96.0667C35.1211 96.8122 36.1151 97.392 37.1091 97.9718C37.3852 98.1375 37.6614 98.3032 37.9375 98.4688C38.683 98.883 39.5113 99.2143 40.3396 99.5457L40.7538 99.7113C42.1896 100.319 43.6253 100.899 45.0611 101.451C47.9602 102.61 51.0251 103.19 54.1727 103.19C56.8234 103.19 59.0598 103.522 61.1307 104.019C61.8762 104.184 62.7045 104.433 63.45 104.681L63.8642 104.847C64.5268 105.095 65.2723 105.344 66.1006 105.427C66.5148 105.51 66.7633 105.592 66.8462 105.841C67.067 106.283 67.426 106.421 67.923 106.255C68.917 105.924 69.9938 105.758 70.9878 105.592C71.3744 105.537 71.7885 105.454 72.2303 105.344C72.4788 105.261 72.7273 105.261 72.9758 105.261C73.1415 105.344 73.3071 105.427 73.3071 105.592C73.3071 105.703 73.2795 105.786 73.2243 105.841ZM96.3347 68.8147H96.4175C96.4727 68.7594 96.5556 68.7042 96.666 68.649C96.8317 68.5385 97.0249 68.4281 97.2458 68.3177C98.2398 67.655 99.3167 67.0752 100.311 66.4125C102.05 65.3357 103.872 64.176 105.612 63.0163C107.02 62.0224 108.263 60.9455 109.339 60.0344C109.395 59.9791 109.477 59.9239 109.588 59.8687C109.698 59.7583 109.836 59.6478 110.002 59.5374C110.168 59.4545 110.333 59.3717 110.416 59.4545C110.527 59.5098 110.61 59.6478 110.665 59.8687C110.665 59.9239 110.665 59.9791 110.665 60.0344C110.72 60.1448 110.83 60.2553 110.996 60.3657L111.162 60.4485L111.245 60.2C112.156 58.4605 113.481 56.8867 114.806 55.3957C115.138 55.0644 115.441 54.7331 115.718 54.4017L115.883 54.1532L115.635 53.9876C115.303 53.8219 115.138 54.0704 115.055 54.1532C115.055 54.1532 115.027 54.1532 114.972 54.1532C112.984 55.6442 110.83 57.218 108.76 59.0404C107.848 59.8687 106.854 60.5314 105.778 61.1112L105.612 61.194C104.728 61.8015 103.928 62.4641 103.21 63.182C102.299 64.0103 101.139 64.7558 99.648 65.5013C99.151 65.7222 98.6264 65.9431 98.0741 66.164C97.4943 66.4953 96.8317 66.5782 96.169 66.661C95.8377 66.7162 95.5339 66.7714 95.2578 66.8267C94.8437 66.9095 94.4295 66.9923 94.0982 67.0752C93.1594 67.1856 92.3035 67.1304 91.5304 66.9095C90.3707 66.4953 89.4595 65.9983 88.6312 65.4185C88.0514 64.9215 87.3887 64.5073 86.8089 64.176C86.5328 64.0103 86.2291 63.8171 85.8977 63.5962L85.5664 63.3477C85.1798 63.1268 84.7933 62.8507 84.4067 62.5194C82.7501 61.2769 80.8449 60.2829 78.4428 59.6202C76.1235 58.8747 74.1355 58.5434 72.2303 58.5434C71.6781 58.5434 71.0982 58.5434 70.4908 58.5434C68.42 58.709 66.6805 58.5434 65.1895 58.1292C63.8642 57.7979 62.456 57.715 60.6337 57.8807C59.7225 57.9635 58.7285 58.0464 57.8174 58.212H57.5689C56.7405 58.3777 55.9122 58.6262 55.1667 58.8747L55.001 58.9575C54.8354 59.0404 54.7525 59.206 54.6697 59.3717C54.7249 59.4821 54.7802 59.565 54.8354 59.6202C54.8906 59.7306 54.9458 59.7859 55.001 59.7859C56.3264 60.2829 57.486 61.0284 58.6457 61.7739C58.977 61.9947 59.3084 62.2156 59.6397 62.4365C63.3672 64.7558 67.0946 66.0812 71.0706 66.4953C72.5616 66.661 73.9698 66.7438 75.2951 66.7438C76.9518 66.8267 79.0226 66.9095 81.0106 67.3237C83.9926 67.9035 86.9746 68.152 90.0394 67.9863C90.5916 67.9311 91.1438 67.9035 91.696 67.9035C92.8557 67.9035 94.0153 67.9035 95.2578 67.7378C95.3131 67.6826 95.3959 67.655 95.5063 67.655C95.9205 67.7378 96.0033 67.8207 96.0862 68.0692C96.0862 68.1244 96.0862 68.2072 96.0862 68.3177C96.0862 68.3729 96.0862 68.4281 96.0862 68.4833L94.7608 69.0632C93.7116 69.5601 92.6624 70.0571 91.6132 70.5541C89.7909 71.2996 88.1342 72.2936 86.4775 73.2048C85.6492 73.7018 84.8209 74.1712 83.9926 74.613C83.4403 74.8891 82.8881 75.1376 82.3359 75.3585C82.0046 75.5241 81.6733 75.6898 81.3419 75.8554C80.8449 76.1316 80.2927 76.2144 79.6853 76.104C78.1114 75.8554 76.5376 75.6898 74.9638 75.6069L74.1354 75.5241C73.0586 75.4413 71.899 75.4413 70.4908 75.6069C68.2543 75.8554 65.8522 76.0211 63.0358 76.2696C62.1247 76.3524 61.2135 76.3524 60.468 76.2696C58.2315 76.1868 55.9122 76.4353 52.9302 77.0151C52.6541 77.0703 52.378 77.1532 52.1019 77.2636C50.5557 77.7606 48.9819 78.2576 47.3804 78.7546L45.4753 79.4173V79.5829V79.6658C45.5581 80.0799 45.8894 80.0799 45.9723 80.0799C46.0275 80.0799 46.0551 80.0799 46.0551 80.0799C46.7178 80.1351 47.3528 80.1904 47.9602 80.2456C48.6781 80.356 49.396 80.4389 50.1139 80.4941C51.0251 80.6598 51.9362 80.8254 53.1787 81.2396C54.0071 81.5709 54.7525 81.8194 55.3324 81.9851C56.6025 82.3716 57.9002 82.5649 59.2255 82.5649C60.1367 82.5649 61.0479 82.6477 61.8762 82.6477L62.6217 82.7306C63.6157 82.8134 64.6097 82.8134 65.6865 82.7306C67.2603 82.6477 68.7513 82.2336 70.4908 81.4881L71.2363 81.0739C73.8041 79.9143 76.4548 78.7546 79.1883 77.9263C81.0934 77.3464 82.8329 76.4353 84.5724 75.6069L84.6552 75.5241C86.4776 74.613 88.5484 73.619 90.5364 72.5421C92.69 71.2996 94.5952 70.0571 96.3347 68.8147ZM78.5256 116.029H78.4428C78.4428 115.947 78.3599 115.864 78.2771 115.864C78.1114 115.864 77.9458 115.947 77.8629 116.029C77.7801 116.112 77.6973 116.195 77.6973 116.361C77.6973 116.526 77.8629 116.609 77.9458 116.609C78.1114 116.692 78.1943 116.609 78.2771 116.526C78.3599 116.444 78.5256 116.278 78.5256 116.112V116.029ZM95.4235 111.556C94.5952 114.621 93.0214 116.858 91.6132 118.68C91.3923 118.956 91.1714 119.232 90.9505 119.508C89.8737 120.751 89.0454 122.242 88.3827 124.064C88.0514 125.058 88.0514 126.052 87.9686 127.129V128.786C87.9686 130.111 87.9409 131.409 87.8857 132.679C87.8029 134.584 87.6372 136.489 87.3059 138.56C87.0574 140.217 86.7261 142.287 87.0574 144.441C87.1126 144.552 87.1402 144.662 87.1402 144.772V144.855C87.2231 145.849 87.1402 146.843 86.8917 147.837C86.6432 148.583 86.4776 149.411 86.3119 150.157L86.1462 150.736C86.1462 150.902 86.1462 151.068 86.1462 151.233V151.399C86.1462 151.482 86.229 151.648 86.3947 151.648C86.4775 151.648 86.6432 151.648 86.7261 151.565C86.8917 151.399 87.0574 151.233 87.1402 151.151C88.2171 149.742 89.0454 148.169 89.9565 146.512L90.205 146.015C90.7849 145.021 91.3647 143.861 92.0274 142.95C92.5244 142.232 92.9385 141.404 93.2699 140.465L93.5183 139.554C93.8497 138.477 94.181 137.483 94.5123 136.406C94.9265 135.081 95.0922 133.673 95.0093 131.933C95.0093 129.863 95.0093 127.792 95.0093 125.804C95.0093 125.141 95.0922 124.396 95.2578 123.65C95.3131 122.932 95.3959 122.187 95.5063 121.414C95.672 120.337 95.8377 119.177 95.9205 118.1C96.0862 116.692 96.2518 115.118 96.0033 113.462C96.0033 113.047 96.0033 112.716 95.9205 112.302C95.9205 112.081 95.9205 111.86 95.9205 111.639L95.4235 111.556ZM109.836 62.6022L109.339 62.3537L109.008 62.8507C108.787 63.1268 108.594 63.3753 108.428 63.5962C108.318 63.7618 108.207 63.8999 108.097 64.0103C107.931 64.2312 107.766 64.4521 107.6 64.673C106.192 66.7438 104.369 68.4005 102.63 69.9743C101.139 71.2996 99.5652 72.8735 97.9085 74.6958C97.7428 74.8614 97.5772 75.0547 97.4115 75.2756C96.9973 75.6898 96.5832 76.1868 96.169 76.6009C94.678 78.0919 93.6012 79.9971 92.8557 82.4821C92.1102 84.9671 91.696 87.4521 91.3647 90.434C91.2542 91.1519 91.1714 91.8974 91.1162 92.6705C91.0058 93.1675 90.9229 93.6921 90.8677 94.2443C90.8677 94.2996 90.8677 94.3548 90.8677 94.41C90.7849 94.4928 90.7849 94.6585 90.7849 94.8242C90.8401 94.8794 90.8677 94.9346 90.8677 94.9898L90.9505 95.0727L91.0334 95.1555C91.3647 95.2384 91.5304 95.0727 91.696 94.907C96.7488 90.3512 100.228 86.5409 103.044 82.5649C103.375 82.0127 103.734 81.4881 104.121 80.9911C104.701 80.2456 105.281 79.4173 105.86 78.5889C107.02 76.8494 107.517 74.9443 107.434 72.7078C107.434 72.4317 107.434 72.1556 107.434 71.8795C107.379 71.3825 107.351 70.8855 107.351 70.3885C107.269 68.7318 107.6 67.158 108.428 65.5013C108.677 64.9215 109.836 62.6022 109.836 62.6022ZM99.8137 116.775C99.8137 117.714 99.8965 118.652 100.062 119.591C100.393 121.414 101.056 123.319 101.967 125.39C103.127 127.875 104.204 130.359 105.363 133.01C105.612 133.424 105.695 134.004 105.86 134.501C106.44 136.241 107.186 137.98 108.18 139.885C108.456 140.438 108.76 140.962 109.091 141.459C109.257 141.625 109.395 141.79 109.505 141.956C109.919 142.453 110.333 143.033 110.748 143.613C110.748 143.696 110.913 143.944 111.245 143.861L111.327 143.778C111.576 143.613 111.493 143.281 111.493 143.116C111.493 143.061 111.493 143.005 111.493 142.95C111.576 140.631 111.41 138.229 111.327 135.992C111.327 135.385 111.245 134.75 111.079 134.087C111.024 133.48 110.886 132.844 110.665 132.182C110.333 131.188 110.085 130.111 109.919 128.869C109.505 126.715 109.091 124.975 108.511 123.402C108.18 122.49 107.766 121.662 107.269 120.668C105.86 118.1 104.204 115.45 102.133 112.633C101.967 112.412 101.802 112.219 101.636 112.053L101.553 111.888C101.443 111.833 101.36 111.75 101.305 111.639C100.532 111.087 99.786 110.507 99.0682 109.9C98.9853 109.817 98.9025 109.817 98.8196 109.817C98.7644 109.817 98.7092 109.817 98.654 109.817H98.3227L98.4055 110.148C98.4607 110.259 98.5159 110.369 98.5712 110.48C98.6264 110.7 98.6816 110.894 98.7368 111.059C99.0682 111.943 99.3443 112.882 99.5652 113.876C99.6756 114.815 99.7584 115.781 99.8137 116.775ZM124.581 88.3632C124.525 88.6393 124.443 88.9154 124.332 89.1915C124.056 90.2408 123.752 91.29 123.421 92.3392C123.007 93.4989 122.841 94.5757 122.841 95.6525L122.758 96.6465C122.676 97.5577 122.676 98.5517 122.676 99.4628C122.676 100.125 122.676 100.705 122.758 101.368L122.841 101.616C122.896 102.5 122.869 103.356 122.758 104.184C122.261 107.663 121.682 110.231 120.77 112.55C120.605 113.213 120.356 113.876 120.191 114.538C120.135 114.815 120.052 115.091 119.942 115.367C119.887 115.588 119.859 115.809 119.859 116.029C119.804 116.085 119.804 116.14 119.859 116.195C119.859 116.278 119.859 116.444 119.942 116.526C120.052 116.582 120.135 116.609 120.191 116.609C120.356 116.609 120.522 116.444 120.522 116.361C120.743 116.14 120.964 115.891 121.185 115.615L122.51 113.876C123.449 112.661 124.387 111.446 125.326 110.231C125.989 109.348 126.707 108.547 127.48 107.829C128.391 106.918 129.136 106.007 129.633 104.847C129.744 104.571 129.854 104.322 129.965 104.101C130.296 103.522 130.545 102.859 130.793 102.196C131.207 100.871 131.373 99.4628 131.29 97.5577C131.29 96.7293 131.207 95.9562 131.042 95.2383C130.986 94.7966 130.904 94.3548 130.793 93.913C130.545 93.0847 130.13 92.2564 129.716 91.428L129.633 91.1795C129.302 90.4064 128.943 89.6609 128.557 88.943C128.391 88.5013 128.198 88.0871 127.977 87.7006C127.756 87.2588 127.618 86.8446 127.563 86.4581C127.452 85.7954 127.507 85.1327 127.728 84.4701C128.308 83.0619 128.639 81.6538 129.054 80.2456V80.1628C129.136 79.9143 129.219 79.5829 129.136 79.0859L129.054 78.2576L128.391 79.9143C128.142 80.5769 127.894 81.1567 127.728 81.8194C127.563 82.2336 127.397 82.6477 127.149 83.0619C126.707 83.8902 126.016 84.3872 125.078 84.5529C123.421 84.829 121.847 85.2156 120.356 85.7126C116.049 87.2036 112.653 89.8542 110.416 93.7474C109.257 95.6525 108.263 97.392 107.517 99.2143C107.186 100.043 106.689 100.871 106.192 101.699C105.971 102.031 105.778 102.334 105.612 102.61C105.225 103.218 104.866 103.825 104.535 104.433C104.204 104.93 103.9 105.427 103.624 105.924C103.541 106.007 103.541 106.089 103.541 106.172C103.541 106.228 103.541 106.255 103.541 106.255V106.421L103.707 106.504C104.038 106.586 104.287 106.421 104.452 106.255C104.508 106.2 104.563 106.172 104.618 106.172C105.225 105.731 105.86 105.289 106.523 104.847C107.296 104.295 108.069 103.743 108.842 103.19L109.174 102.942C110.168 102.279 111.079 101.616 112.156 101.037C112.818 100.622 113.481 100.125 114.227 99.38L115.552 98.0547C116.601 97.0055 117.623 95.9562 118.617 94.907C119.362 94.0787 120.025 93.2504 120.688 92.3392C120.964 91.9526 121.24 91.5937 121.516 91.2624C121.902 90.7102 122.289 90.1579 122.676 89.6057C122.896 89.2744 123.117 88.943 123.338 88.6117C123.559 88.3356 123.752 88.1423 123.918 88.0319C124.028 87.9214 124.167 87.9214 124.332 88.0319C124.443 88.0871 124.498 88.1699 124.498 88.2804C124.553 88.2804 124.581 88.308 124.581 88.3632ZM144.958 95.2383C144.378 94.1615 143.798 93.0847 143.218 92.0907C142.997 91.6489 142.776 91.2348 142.555 90.8482C141.81 89.44 140.816 87.7006 139.739 86.1267C138.662 84.5529 137.337 83.1447 136.177 82.0679C135.846 81.7366 135.542 81.3776 135.266 80.9911C134.935 80.6598 134.686 80.1628 134.603 79.5829C134.521 79.0031 134.355 78.5061 134.189 77.9263L134.024 77.4293C133.858 76.7666 133.692 76.1868 133.527 75.5241C133.444 75.0271 133.278 74.5301 133.112 74.116C132.947 73.7294 132.781 73.3705 132.615 73.0391C132.56 72.8735 132.477 72.7078 132.367 72.5421L132.284 72.2936L132.036 72.4593C131.787 72.7078 131.87 72.9563 131.87 73.122C131.87 73.1772 131.87 73.2048 131.87 73.2048C131.87 73.26 131.898 73.3428 131.953 73.4533C131.953 73.5637 131.98 73.6742 132.036 73.7846L132.367 75.1928C132.698 76.4353 133.112 77.6778 133.444 78.9203C133.554 79.3068 133.637 79.721 133.692 80.1628C133.941 81.3224 133.941 82.4821 133.692 83.5589C133.692 83.7246 133.665 83.8626 133.609 83.9731C133.609 84.1387 133.582 84.3044 133.527 84.4701C133.278 85.8782 133.361 87.3692 133.527 88.446C133.692 89.7714 133.858 91.0967 134.106 92.5049C134.272 93.3332 134.438 94.1891 134.603 95.0727C135.183 97.7233 136.012 99.877 137.254 101.782C138.165 103.273 139.159 104.847 140.319 106.338C141.479 107.912 142.473 109.651 143.301 111.391C143.632 112.109 143.991 112.854 144.378 113.627C144.599 113.959 144.792 114.318 144.958 114.704L145.372 114.621L145.455 112.633C145.455 111.142 145.455 109.817 145.455 108.492C145.537 107.498 145.62 106.421 145.869 105.344C146.366 103.107 146.449 100.871 146.117 98.7173C146.117 98.5517 146.09 98.386 146.034 98.2203C145.869 97.1435 145.537 96.1495 144.958 95.2383ZM131.953 60.3657L131.539 60.4485C131.539 60.9455 131.511 61.4701 131.456 62.0224C131.373 63.182 131.373 64.4245 131.29 65.5842C131.29 67.1856 131.18 68.7318 130.959 70.2228C130.904 70.5541 130.876 70.8579 130.876 71.134C130.876 71.1892 130.876 71.2444 130.876 71.2996C130.876 71.3825 130.959 71.5481 131.207 71.7138C131.456 71.7966 131.621 71.7966 131.787 71.7138C131.953 71.6034 132.063 71.4377 132.118 71.2168V70.5541C132.174 69.781 132.201 69.0079 132.201 68.2348C132.201 67.2408 132.257 66.3021 132.367 65.4185C132.45 64.0103 132.45 62.7679 132.284 61.5254C132.174 61.1388 132.063 60.7523 131.953 60.3657Z" fill="white"/>
<path opacity="0.4" fill-rule="evenodd" clip-rule="evenodd" d="M266.142 72.6246C265.976 72.6799 265.783 72.6799 265.562 72.6246C263.326 72.3761 261.338 72.2105 259.515 72.2105C258.356 72.1276 257.362 72.0448 256.451 71.962C255.236 71.8515 253.993 71.7135 252.723 71.5478L252.557 71.465C251.232 71.2993 249.824 71.1336 248.499 70.968C247.008 70.8851 245.599 70.5538 244.191 70.0568C243.915 69.9464 243.639 69.8635 243.363 69.8083C243.087 69.6979 242.838 69.5874 242.618 69.477C242.397 69.4218 242.176 69.3389 241.955 69.2285H241.706C240.961 68.8972 240.133 68.5658 239.387 68.2345C237.482 67.3233 235.742 66.1637 234.251 64.6727C231.435 62.022 229.696 59.4542 228.784 56.4722C228.205 54.7327 227.956 53.0761 227.956 51.5023C227.873 49.5143 228.122 47.5263 228.453 45.7868C228.508 45.1793 228.564 44.6271 228.619 44.1301C228.702 43.219 228.784 42.3078 228.784 41.3138V41.1481C228.867 39.9885 228.702 38.9945 228.37 38.0005L228.287 37.5863C228.122 37.255 227.984 36.896 227.873 36.5095C227.652 35.6812 227.293 34.8804 226.796 34.1073C226.465 33.6103 226.134 33.1962 225.885 32.782L225.637 32.4507C224.864 31.291 224.615 30.0761 224.891 28.806C224.946 28.4747 225.002 28.171 225.057 27.8949C225.057 27.6464 225.14 27.3979 225.223 27.0665C225.223 26.9837 225.305 26.818 225.14 26.6524L224.974 26.5695L224.891 26.6524C223.98 28.1434 222.903 29.3859 221.578 30.4627C220.584 31.3739 219.59 32.3678 218.596 33.5275C218.154 34.0245 217.712 34.5215 217.271 35.0185C216.553 35.8468 215.835 36.6752 215.117 37.5035C213.378 39.4086 211.638 40.8996 209.733 42.1421C208.159 43.1361 206.502 44.0473 204.929 44.8756C204.376 45.2069 203.796 45.5659 203.189 45.9524C202.195 46.4494 201.532 47.1121 200.953 47.7748C200.787 47.9957 200.621 48.2165 200.456 48.4374L200.373 48.5203C200.152 48.7964 199.931 49.0725 199.71 49.3486C199.544 49.5695 199.379 49.7904 199.213 50.0113C198.633 50.6739 198.136 51.4194 197.639 52.1649C196.977 53.1589 196.397 54.2357 195.817 55.3126L195.651 55.4782C195.486 55.7543 195.32 56.0581 195.154 56.3894C194.989 56.6655 194.851 56.9416 194.74 57.2177C194.077 58.8744 193.746 60.4482 193.415 61.7735C193.36 62.0496 193.36 62.2981 193.415 62.519C193.636 64.01 194.05 65.4458 194.657 66.8263C195.403 68.4002 196.397 69.8912 197.722 71.5478C198.716 72.7075 199.959 73.7015 201.45 74.3641C201.726 74.5298 202.002 74.6678 202.278 74.7783C202.885 74.944 203.465 75.0544 204.017 75.1096C204.79 75.1096 205.536 75.1372 206.254 75.1925C206.806 75.1925 207.358 75.1925 207.911 75.1925C209.899 75.2753 211.555 75.5238 213.046 76.1036C213.322 76.1588 213.571 76.2417 213.792 76.3521L214.206 76.5178C214.592 76.6835 214.951 76.8215 215.283 76.932L215.862 77.2633C216.939 77.6774 218.016 78.1744 219.01 78.7543C220.335 79.3341 221.578 80.2453 222.738 80.9908C223.069 81.2669 223.4 81.5154 223.732 81.7363C224.643 82.3161 225.554 82.9788 226.382 83.7243C228.039 85.1324 229.944 86.8719 231.932 88.4457C233.092 89.3293 234.334 90.0472 235.66 90.5994C235.825 90.6546 235.963 90.7098 236.074 90.765C236.626 90.9307 237.206 91.0964 237.813 91.262H237.896C238.172 91.3173 238.476 91.4001 238.807 91.5105C239.028 91.5658 239.332 91.6486 239.718 91.759C239.994 91.8695 240.215 92.0904 240.381 92.4217C240.491 92.5874 240.519 92.7254 240.464 92.8359C240.409 93.0015 240.271 93.0844 240.05 93.0844C239.884 93.0844 239.718 93.0568 239.553 93.0015C239 92.8911 238.503 92.7806 238.062 92.6702C234.583 91.8419 231.021 91.0135 227.459 90.3509C223.649 89.6054 219.921 88.6942 216.442 87.7002C216.001 87.5898 215.559 87.4517 215.117 87.2861C213.46 86.7338 211.859 85.9883 210.313 85.0496C209.07 84.3041 207.828 83.3101 206.337 81.9848C204.597 80.4109 202.444 78.4229 200.456 76.1865C200.124 75.7723 199.793 75.3581 199.462 75.0268C198.799 74.447 198.219 73.7015 197.639 73.0388C196.977 72.2933 196.397 71.5478 195.651 70.8851C195.596 70.8851 195.568 70.8851 195.568 70.8851V70.8023C194.492 69.477 193.663 68.1517 193.166 66.7435V66.6607C193.083 66.5778 193.083 66.4122 192.835 66.3293H192.752C192.586 66.4122 192.586 66.5778 192.586 66.7435L192.504 67.0748C192.421 68.0688 192.338 69.1457 192.338 70.1397C192.338 70.4158 192.366 70.7195 192.421 71.0508C192.421 71.3821 192.421 71.7963 192.421 72.2105C192.421 72.8731 192.421 73.453 192.504 73.95C192.586 75.938 193.083 77.9259 193.58 80.0796C193.746 80.5766 193.912 81.0184 194.077 81.4049C194.492 82.1504 194.989 82.8959 195.32 83.4757C195.541 83.8071 195.789 84.0832 196.065 84.3041C196.314 84.6354 196.728 85.0496 196.977 85.5466C197.197 85.9883 197.556 86.3473 198.053 86.6234C198.55 86.8719 198.965 87.1204 199.296 87.4517C201.035 88.7771 202.692 90.1852 204.017 91.4277C204.68 92.0352 205.232 92.6426 205.674 93.25C206.502 94.3269 207.165 95.4037 207.911 96.5633V96.729C208.49 97.723 209.153 98.7998 209.733 99.7938C210.23 100.622 210.893 101.699 211.307 102.859C211.721 103.935 212.301 105.095 213.046 106.503C213.378 107.083 213.709 107.829 213.957 108.574C214.454 110.148 215.2 111.556 215.862 112.881C216.111 113.296 216.277 113.627 216.359 113.958C216.774 115.035 217.105 116.029 216.856 117.106C216.801 117.437 216.856 117.824 217.022 118.266L217.188 118.597C217.298 118.928 217.409 119.232 217.519 119.508C217.933 120.254 218.347 120.999 218.679 121.745C218.844 122.021 219.01 122.297 219.176 122.573C220.17 124.478 220.915 126.3 221.412 128.123C221.744 129.2 221.909 130.276 222.158 131.436C222.323 132.43 222.489 133.507 222.738 134.666L222.986 135.992C223.097 136.434 223.179 136.875 223.235 137.317C223.317 137.98 223.483 138.808 223.649 139.554C223.732 140.051 223.814 140.548 223.897 141.045V141.542C223.952 141.873 223.952 142.149 223.897 142.37C223.842 142.536 223.759 142.646 223.649 142.701C223.538 142.757 223.4 142.784 223.235 142.784C223.179 142.729 223.124 142.674 223.069 142.618C222.903 142.453 222.82 142.287 222.738 142.121L222.572 141.542C222.406 140.989 222.241 140.465 222.075 139.968C221.854 139.305 221.606 138.725 221.329 138.228C220.17 135.992 219.093 134.169 217.85 132.596C216.525 130.773 215.034 129.117 213.543 127.46L213.295 127.294C212.632 126.521 211.942 125.776 211.224 125.058L211.141 124.975C210.313 123.981 209.319 122.987 208.408 121.993C205.923 119.177 203.52 116.195 200.953 112.716C200.207 111.722 199.462 110.728 198.882 109.568C198.716 109.237 198.55 108.933 198.385 108.657L198.136 108.326C197.722 107.497 197.059 106.42 196.645 105.261C196.59 105.04 196.507 104.791 196.397 104.515C196.231 104.129 196.093 103.715 195.983 103.273L195.734 102.776C195.486 102.03 195.237 101.285 195.071 100.539C194.492 97.1432 194.326 93.5814 194.574 89.6054C194.574 89.4397 194.602 89.3293 194.657 89.274C194.74 89.0256 194.74 88.6942 194.657 88.4457V88.3629C194.657 87.7002 194.574 87.0376 194.409 86.3749V86.2921C194.409 86.016 194.381 85.7398 194.326 85.4637C194.215 84.6906 193.995 83.9175 193.663 83.1444C193.083 81.6534 192.669 80.5766 192.255 79.4998C192.145 79.1132 192.034 78.7543 191.924 78.4229V78.3401C191.869 78.1744 191.813 77.9812 191.758 77.7603C191.758 77.6774 191.675 77.5946 191.592 77.5946C191.537 77.5946 191.482 77.5946 191.427 77.5946C191.316 77.6498 191.261 77.7051 191.261 77.7603C190.985 78.6438 190.654 79.5274 190.267 80.4109C190.101 80.6594 190.101 80.9079 190.019 81.1564C189.798 83.034 189.687 84.8563 189.687 86.6234C189.77 88.2801 189.687 90.268 189.19 92.1732C188.914 93.2224 188.583 94.3269 188.196 95.4865C187.865 96.4805 187.451 97.3917 187.119 98.3028L187.037 98.3857C186.871 98.8274 186.678 99.2968 186.457 99.7938C186.208 100.374 185.96 100.953 185.628 101.533C185.408 101.975 185.187 102.417 184.966 102.859C184.8 103.356 184.469 103.77 184.22 104.184C183.999 104.46 183.806 104.709 183.64 104.929C182.646 106.586 181.404 108.16 180.244 109.568C179.25 110.811 178.422 111.805 177.594 112.716C176.683 113.71 175.937 114.787 175.192 115.781C174.86 116.278 174.529 116.692 174.198 117.106C173.535 118.017 172.872 118.845 172.127 119.508C171.878 119.757 171.713 119.922 171.464 120.005C171.298 120.06 171.16 120.06 171.05 120.005C170.801 119.922 170.636 119.757 170.719 119.425C170.719 119.315 170.746 119.177 170.801 119.011L170.884 118.928C171.216 117.934 171.547 117.023 172.127 116.112C172.458 115.615 172.707 115.118 172.955 114.621C173.949 111.887 174.86 108.988 175.689 106.255L175.854 105.841C176.268 104.515 176.517 103.19 176.765 101.782L176.848 101.45C177.345 99.2968 177.925 97.1432 178.339 95.5694L178.505 94.9895C178.836 93.747 179.25 92.5045 179.747 91.262L179.913 90.8479C180.162 90.268 180.41 89.6882 180.741 89.1912C181.404 88.2524 182.205 87.4241 183.143 86.7062C183.64 86.2645 184.165 85.8503 184.717 85.4637V85.3809C185.159 85.0496 185.601 84.7459 186.043 84.4697C186.788 83.8071 187.368 83.3101 187.699 82.6474C189.439 80.0796 190.516 77.8431 190.93 75.5238C191.013 74.6955 191.095 74.1156 191.013 73.453C190.847 70.8851 190.93 68.5658 191.178 66.4122C191.427 64.9212 191.675 63.3474 192.089 61.3594C192.145 61.3041 192.172 61.2489 192.172 61.1937C192.255 61.028 192.255 60.7795 192.172 60.6139V60.4482L192.007 60.531C191.841 60.531 191.758 60.6967 191.592 60.7795L190.267 62.4362C189.19 63.6787 188.279 64.7555 187.285 65.8323C185.463 68.0688 183.806 70.3881 182.564 72.7075C181.984 73.6186 181.487 74.5298 180.907 75.3581C180.41 76.1865 179.913 77.0148 179.416 77.7603V77.8431C178.919 78.5058 178.505 79.2513 178.008 79.9968C177.511 80.8251 176.931 81.6534 176.351 82.5646C175.689 83.7243 172.458 89.274 172.458 89.274C172.292 89.5226 172.127 89.771 171.961 90.0196C171.464 90.5994 171.133 91.262 170.801 91.8419C170.801 91.8419 170.222 92.753 170.056 93.0015C169.725 93.4985 169.393 94.1612 169.062 94.741C168.841 95.1276 168.593 95.5141 168.316 95.9007C167.902 96.5633 167.488 97.226 167.157 97.9715C166.991 98.3581 166.825 98.7722 166.66 99.214C166.328 99.7938 166.08 100.456 165.831 101.119C165.666 101.782 165.445 102.362 165.169 102.859C164.589 103.853 164.009 105.095 163.512 106.255C163.236 106.917 162.932 107.608 162.601 108.326C162.27 109.154 161.773 109.568 161.193 109.734C160.613 109.982 160.199 110.314 159.867 110.728C159.039 111.473 158.542 112.55 158.128 113.793C157.879 114.621 157.962 115.532 157.962 116.278C158.128 118.763 158.045 121.248 157.879 123.733C157.631 126.135 157.134 128.454 156.223 130.525C156.112 130.746 156.002 130.994 155.891 131.27C155.726 131.491 155.588 131.74 155.477 132.016C154.649 134.004 153.324 135.909 151.501 137.814C150.093 139.305 148.519 140.63 146.614 142.039C146.228 142.315 145.869 142.563 145.537 142.784C144.102 143.612 142.638 144.386 141.147 145.103C138.579 146.263 135.929 147.34 133.03 148.5C132.256 148.831 131.483 149.135 130.71 149.411H130.627C129.854 149.687 129.081 149.991 128.308 150.322C126.983 150.819 125.657 151.316 124.498 151.813C123.504 152.255 122.51 152.669 121.516 153.055C120.77 153.304 120.025 153.635 119.114 153.967C118.727 154.077 118.368 154.16 118.037 154.215C117.926 154.215 117.816 154.215 117.706 154.215C117.54 154.16 117.429 154.049 117.374 153.884C117.264 153.608 117.374 153.359 117.706 153.138C117.871 153.028 118.037 152.917 118.203 152.807C118.203 152.807 118.782 152.558 119.031 152.393C119.445 152.227 119.859 152.061 120.273 151.813C121.847 150.985 123.338 149.991 124.829 149.079L125.409 148.748C126.983 147.754 128.142 146.926 129.136 146.015C131.539 143.944 133.775 141.542 136.012 138.891C137.088 137.483 138.165 136.323 139.242 135.329C139.242 135.329 143.218 131.602 144.046 130.773C146.283 128.703 148.271 126.218 149.845 123.401L149.927 123.318C150.093 122.987 150.342 122.656 150.507 122.324C150.673 121.993 150.839 121.634 151.004 121.248C151.253 120.751 151.584 120.171 151.833 119.674C152.827 117.934 153.738 116.36 154.649 114.869C154.649 114.869 154.649 114.842 154.649 114.787H154.732C154.815 114.621 154.98 114.455 154.732 114.207H154.649C154.483 114.124 154.318 114.207 154.235 114.29C154.18 114.29 154.152 114.317 154.152 114.372C152.412 115.284 150.673 115.863 148.851 116.195C148.519 116.25 148.188 116.388 147.857 116.609C146.78 117.189 145.62 117.686 144.543 118.183L144.129 118.348C143.384 118.68 142.555 118.928 141.81 119.26C141.092 119.48 140.374 119.757 139.656 120.088C138.497 120.585 137.337 121.165 136.26 122.076C135.349 122.739 134.686 123.567 134.106 124.395C133.223 125.555 132.45 126.825 131.787 128.206C131.401 128.979 131.014 129.724 130.627 130.442C130.351 130.884 130.075 131.298 129.799 131.684C129.551 132.016 129.302 132.513 128.971 132.927C128.308 134.169 127.314 135.329 125.989 136.572C124.332 138.063 122.51 139.388 121.019 140.465C119.279 141.707 117.374 142.453 115.386 142.618C113.067 142.867 110.499 142.95 107.931 142.701C107.213 142.591 106.385 142.508 105.446 142.453C103.375 142.37 101.387 142.37 99.3166 142.453H98.2398C97.5771 142.453 96.942 142.453 96.3346 142.453C96.0585 142.453 95.7824 142.425 95.5063 142.37C95.5063 142.37 95.4787 142.37 95.4235 142.37C95.2578 142.287 95.0921 142.121 95.0921 141.873C95.0921 141.652 95.2026 141.486 95.4235 141.376C95.6443 141.266 95.8928 141.183 96.169 141.127L97.5771 140.796C98.8196 140.548 100.062 140.216 101.305 139.968C103.21 139.471 105.115 138.725 107.103 137.566L107.434 137.317C108.097 136.903 108.842 136.489 109.671 136.157C111.245 135.578 112.901 135.163 114.724 134.915C116.629 134.666 118.534 134.584 120.356 134.501C121.184 134.501 122.013 134.39 122.841 134.169C123.835 133.921 124.829 133.59 126.154 133.01C126.762 132.734 127.397 132.347 128.06 131.85C128.501 131.519 128.86 131.132 129.136 130.691C129.633 130.028 129.965 129.282 130.296 128.62L130.462 128.371C130.627 127.957 130.793 127.626 130.959 127.212C131.124 126.797 131.373 126.383 131.539 125.969C131.759 125.582 132.008 125.196 132.284 124.809C132.864 124.147 133.361 123.401 133.941 122.573L134.106 122.407C134.189 122.324 134.272 122.159 134.189 121.993C134.189 121.91 134.106 121.91 134.106 121.91C133.996 121.855 133.886 121.855 133.775 121.91C133.609 121.965 133.444 122.021 133.278 122.076H133.03C132.698 122.186 132.395 122.269 132.118 122.324C131.042 122.573 129.965 122.821 128.888 123.07C127.066 123.484 125.243 123.898 123.504 124.478C121.93 124.892 120.356 125.224 118.782 125.638C118.23 125.748 117.65 125.886 117.043 126.052C116.767 126.107 116.491 126.162 116.214 126.218C115.994 126.218 115.773 126.245 115.552 126.3H115.469C114.972 126.3 114.475 126.383 113.978 126.549C113.067 126.797 112.073 127.129 111.162 127.626C108.842 128.868 106.523 130.111 104.369 131.188L104.121 131.353C103.375 131.767 102.464 132.264 101.636 132.513C100.642 132.761 99.7308 133.176 98.8196 133.507H98.7368C98.0741 133.783 97.3838 134.031 96.666 134.252C95.4235 134.666 94.2638 134.998 93.1041 135.163C91.1161 135.578 88.8796 135.909 85.9805 136.24C83.9097 136.489 82.253 136.654 80.6792 136.572C77.6972 136.572 74.5495 136.323 71.0706 135.66C66.5148 134.749 62.0418 133.672 58.3143 132.678C55.6636 131.933 53.013 131.022 50.3623 130.111L48.3744 129.448C46.4692 128.785 44.8125 128.206 43.4044 127.543C42.9902 127.294 42.6589 127.129 42.2447 126.88L42.079 126.797C41.8582 126.632 41.6649 126.438 41.4992 126.218C41.3336 125.997 41.2783 125.776 41.3336 125.555C41.3888 125.334 41.5545 125.196 41.8306 125.141C41.9962 125.085 42.1895 125.058 42.4104 125.058C42.8522 125.058 43.2663 125.058 43.6529 125.058C45.3096 125.141 47.2975 125.141 49.2027 124.975C50.7765 124.809 52.3503 124.644 53.8413 124.395L54.5868 124.312C57.983 123.898 61.4619 123.484 64.8581 122.987C68.5027 122.49 72.0646 121.745 75.0466 120.999C76.4547 120.751 77.8629 120.419 79.271 120.171C82.6672 119.591 85.732 119.508 88.6312 119.922C90.6191 120.254 92.2758 120.668 93.7668 121.165C94.0981 121.275 94.4295 121.413 94.7608 121.579C96.3622 122.186 98.0465 122.794 99.8136 123.401L100.062 123.484C102.961 124.561 106.109 125.224 109.339 125.638C110.333 125.721 111.493 125.886 112.57 125.638H112.984C114.061 125.472 115.138 125.306 116.297 124.975L116.629 124.892C119.362 124.23 122.178 123.484 124.995 122.739C126.237 122.407 127.563 122.159 128.805 121.91L129.219 121.827C130.379 121.579 131.704 121.248 133.03 120.916C134.189 120.668 135.349 120.254 136.426 120.005L137.42 119.674C137.751 119.591 138 119.508 138.331 119.342C139.325 118.845 140.402 118.431 141.396 118.183C141.976 117.934 142.555 117.769 143.052 117.603L143.135 117.52C143.301 117.465 143.494 117.41 143.715 117.354C143.825 117.299 143.936 117.244 144.046 117.189C144.046 117.106 144.129 117.023 144.129 116.94C144.129 116.857 144.046 116.775 143.964 116.692C143.715 116.692 143.467 116.692 143.218 116.692C140.402 116.775 137.337 116.443 133.444 115.698C130.793 115.201 128.06 114.538 125.657 114.041L125.243 113.958C124.028 113.737 122.786 113.489 121.516 113.213C121.461 113.213 121.405 113.185 121.35 113.13C118.285 112.55 115.469 112.136 112.818 111.97C110.499 111.887 108.18 111.473 106.026 111.142C105.805 111.087 105.557 111.032 105.281 110.976C104.949 110.811 104.701 110.562 104.784 110.314C104.784 109.982 105.004 109.789 105.446 109.734C105.778 109.734 106.164 109.734 106.606 109.734C108.014 109.734 109.588 109.651 111.162 109.402C114.144 108.905 117.126 108.16 119.859 107.083C120.853 106.752 121.847 106.338 122.841 105.923H123.007C123.393 105.703 123.808 105.509 124.249 105.344C126.32 104.515 128.06 104.101 129.799 103.853C130.959 103.687 132.284 103.604 133.692 103.438C135.349 103.273 137.088 103.107 138.828 102.693C141.23 102.196 143.632 101.865 145.952 101.782C147.608 101.616 149.348 101.782 151.253 102.113C151.75 102.168 152.192 102.279 152.578 102.444C153.296 102.665 153.931 102.969 154.483 103.356C154.87 103.632 155.229 103.935 155.56 104.267C156.112 104.709 156.692 105.233 157.3 105.841C157.576 106.117 157.879 106.338 158.211 106.503C158.321 106.614 158.459 106.697 158.625 106.752C158.901 106.807 159.177 106.835 159.453 106.835C159.867 106.752 160.282 106.669 160.696 106.586L160.944 106.503C161.883 106.282 162.463 105.73 162.684 104.847C162.849 104.405 163.015 103.963 163.181 103.521C164.092 101.202 165.003 99.2968 165.914 97.5573C165.969 97.4469 165.997 97.3641 165.997 97.3088L166.08 97.226C166.135 97.0604 166.218 96.8671 166.328 96.6462C167.24 95.238 168.151 93.747 168.979 92.3389C169.255 91.8419 169.559 91.3173 169.89 90.765C169.945 90.7098 169.973 90.6546 169.973 90.5994L170.056 90.5165C170.222 90.2404 170.387 89.9643 170.553 89.6882C171.381 88.6114 172.044 87.3689 172.707 86.2092L172.789 86.0436C174.115 83.7243 175.606 81.3221 177.014 79.0856C177.759 77.9259 178.422 76.8491 179.085 75.7723C179.085 75.7171 179.112 75.6618 179.167 75.6066C179.665 75.0268 179.996 74.3641 180.41 73.7015C180.52 73.4806 180.658 73.2597 180.824 73.0388C181.155 72.5418 181.404 72.0448 181.735 71.465C182.315 70.471 182.978 69.3942 183.723 68.4002L183.806 68.2345C184.469 67.3233 185.131 66.4122 185.877 65.501C186.484 64.7831 187.092 64.0652 187.699 63.3474C188.196 62.7951 188.693 62.2153 189.19 61.6079L189.356 61.3594C190.267 60.3654 191.095 59.3714 192.089 58.4602C192.918 57.6319 193.498 56.7207 193.912 55.8924C194.492 54.8984 195.071 53.8216 195.734 52.8276L196.397 51.7508C196.507 51.5299 196.618 51.3366 196.728 51.1709C196.894 51.0053 197.225 50.5083 197.639 50.0941C198.053 49.5143 198.468 48.9344 198.633 48.6859C198.744 48.5203 198.854 48.3822 198.965 48.2718C198.965 48.1613 198.965 48.0785 198.965 48.0233C198.909 47.968 198.854 47.9128 198.799 47.8576H198.716C198.495 47.8576 198.274 47.8852 198.053 47.9404C195.9 48.3546 193.746 48.5203 191.758 48.3546C189.522 48.1061 187.202 48.5203 184.469 49.4314C184.469 49.4314 180.659 50.8396 179.83 51.0881L179.085 51.3366C177.842 51.8336 176.434 52.2477 175.192 52.9104C174.529 53.2417 173.866 53.7111 173.204 54.3186C172.927 54.6499 172.734 55.0088 172.624 55.3954C172.513 55.7819 172.43 56.1685 172.375 56.5551C172.32 56.8312 172.292 57.1073 172.292 57.3834C172.237 57.6043 172.182 57.8252 172.127 58.046C171.713 60.6967 171.05 62.6847 169.89 64.507C169.393 65.3353 168.896 66.1637 168.399 66.992V67.0748C167.792 68.0688 167.074 68.9248 166.246 69.6427C165.334 70.471 164.34 71.2165 163.181 72.2105C162.352 72.8731 161.358 73.5358 160.447 74.1985C160.006 74.4746 159.591 74.7507 159.205 75.0268L159.039 75.1925C157.879 75.938 156.72 76.7663 155.56 77.5118C152.412 79.4169 149.845 80.5766 147.277 81.2393C145.123 81.8191 143.135 82.8131 141.396 83.6414C139.491 84.6354 137.668 85.6294 135.929 86.7062L135.763 86.7891C134.769 87.2861 133.775 87.8659 132.698 88.4457C132.036 88.7771 131.29 89.274 130.627 89.6882C130.296 89.8539 129.965 90.0472 129.633 90.268L129.468 90.3509C129.219 90.5165 128.971 90.6822 128.722 90.765C128.557 90.765 128.446 90.7374 128.391 90.6822C128.281 90.6822 128.198 90.627 128.142 90.5165C127.977 90.2957 127.949 90.0748 128.06 89.8539C128.225 89.6882 128.308 89.5226 128.474 89.4397C129.136 88.6942 130.048 87.7831 130.876 86.9547C132.367 85.4637 134.189 83.5586 135.597 81.1564C136.094 80.3281 136.674 79.4169 137.171 78.6714L137.337 78.5058C137.503 78.2297 137.668 77.9536 137.834 77.6774C137.889 77.567 137.944 77.4842 138 77.429L138.082 77.3461C139.076 75.938 139.822 74.8611 140.485 73.7843C141.479 72.1276 142.473 70.3881 143.467 68.6487C144.378 66.992 145.289 65.6667 146.2 64.5898C149.099 61.028 152.412 58.6259 156.14 57.1349C157.714 56.5551 158.956 56.1409 160.199 55.8096C161.358 55.4782 162.684 55.0641 164.092 54.8156C165.086 54.6499 166.08 54.4842 166.991 54.4014C168.482 54.2357 169.725 53.9044 170.884 53.4902C172.127 52.9932 173.286 52.4134 174.446 51.9164L175.026 51.6679C176.075 51.1709 177.152 50.7291 178.256 50.3426C179.25 50.0113 180.217 49.6799 181.156 49.3486L182.232 49.0173C182.564 48.9068 182.895 48.7964 183.226 48.6859L183.309 48.6031C184.303 48.2718 185.38 47.8576 186.54 47.6091C188.279 47.1949 189.687 47.1121 191.013 47.1949C191.758 47.2778 192.421 47.2778 193.001 47.3606C195.817 47.4434 197.888 47.1949 199.793 46.5323C200.207 46.4494 200.704 46.2009 201.035 45.8696C201.615 45.3726 202.195 45.0413 202.941 44.6271C203.327 44.4615 203.686 44.2682 204.017 44.0473C204.846 43.5503 205.923 42.9705 207.082 42.3078L207.662 41.9765C208.408 41.5623 209.236 41.0653 209.899 40.5683C211.969 39.0773 213.792 37.3378 215.365 35.4327C217.436 32.8648 219.838 30.4627 222.655 27.9777C222.82 27.812 222.958 27.6464 223.069 27.4807C223.179 27.3703 223.262 27.2598 223.317 27.1494C223.373 27.0389 223.456 26.9285 223.566 26.818C224.477 25.5755 225.057 24.2502 225.637 22.8421L225.72 22.7592C226.879 20.1086 227.873 17.8721 229.199 15.7184C229.447 15.2214 229.696 14.8901 230.027 14.5588C230.248 14.2827 230.469 14.0342 230.69 13.8133L230.772 13.7304C231.104 13.3163 231.601 12.8193 232.015 12.3223C232.678 11.6596 233.34 10.9141 234.169 9.92013C234.831 9.0918 235.494 8.26347 236.074 7.35231C236.35 6.91053 236.654 6.46876 236.985 6.02698C237.371 5.47476 237.758 4.95015 238.145 4.45316L238.807 3.62483C238.89 3.45916 238.973 3.37633 239.139 3.2935C239.249 3.23827 239.359 3.21066 239.47 3.21066C239.525 3.26589 239.58 3.32111 239.636 3.37633C239.746 3.43155 239.801 3.54199 239.801 3.70766C239.746 3.87333 239.691 4.01138 239.636 4.12183L239.47 4.37032C239.139 4.86732 238.807 5.44715 238.476 6.02698C238.255 6.30309 238.034 6.5792 237.813 6.85531C237.565 7.18664 237.233 7.68364 236.902 8.0978C235.991 9.50596 234.914 10.8313 233.92 11.991C233.34 12.6536 232.678 13.3163 232.181 13.8961L231.435 14.7244C230.69 15.4699 230.193 16.2154 229.778 16.9609L229.696 17.1266C229.116 18.2034 228.536 19.3631 228.039 20.4399C227.79 20.7712 227.708 21.2682 227.542 21.5996C227.045 23.1734 226.714 24.8301 226.382 26.4039C226.217 27.0665 226.134 27.7292 225.968 28.309C225.968 28.3643 225.968 28.4195 225.968 28.4747C225.968 28.5299 225.968 28.5851 225.968 28.6404C225.72 29.7172 225.968 30.794 226.631 31.9537C226.686 32.0089 226.741 32.0917 226.796 32.2022L226.879 32.285C226.879 32.285 226.907 32.3126 226.962 32.3678L227.211 32.782C227.487 33.1686 227.735 33.5275 227.956 33.8588C228.205 34.273 228.536 34.77 228.702 35.3498C229.033 36.3438 229.364 37.4207 229.696 38.5803C229.806 39.0773 229.972 39.5191 230.193 39.9056C230.303 40.1817 230.441 40.4302 230.607 40.6511L230.69 40.8996C232.098 43.219 234.169 44.9585 236.654 46.0353L237.151 46.2838C237.868 46.5599 238.586 46.8636 239.304 47.1949C239.884 47.4434 240.63 47.8576 241.292 48.4374C242.231 49.2105 243.087 50.0665 243.86 51.0053C245.185 52.5791 246.511 54.3186 247.588 55.8096L248.416 56.8864C249.824 58.7915 251.232 60.6967 252.806 62.4362C254.297 64.0929 255.954 65.6667 257.776 66.992C259.184 67.986 260.758 68.98 262.746 70.1397C263.132 70.3053 263.491 70.471 263.823 70.6366L263.988 70.7195C264.32 70.8299 264.651 70.968 264.982 71.1337L265.148 71.2165C265.424 71.3269 265.7 71.4374 265.976 71.5478C266.142 71.6583 266.28 71.7411 266.391 71.7963C266.556 71.962 266.611 72.1553 266.556 72.3761C266.501 72.5418 266.363 72.6246 266.142 72.6246ZM252.309 65.8323L252.06 65.6667C249.327 63.6787 246.759 61.3594 244.44 59.04C242.783 57.4662 241.127 55.5611 239.304 53.3246C238.752 52.6067 238.172 51.8888 237.565 51.1709L235.908 49.0173C235.742 48.8516 235.577 48.6307 235.411 48.3546C234.997 47.7748 234.5 47.1121 233.837 46.4494C233.837 46.4494 232.098 44.4615 231.766 44.0473C231.187 43.3846 230.772 42.8876 230.441 42.3078C230.331 42.1421 230.193 42.0041 230.027 41.8936C230.027 41.8384 229.999 41.8108 229.944 41.8108C229.861 41.728 229.696 41.8108 229.613 41.8936C229.613 41.9489 229.613 42.0317 229.613 42.1421C229.558 42.2526 229.53 42.3906 229.53 42.5563C229.53 43.8816 229.364 45.2069 229.199 46.5323V46.6151C229.143 47.0017 229.088 47.3882 229.033 47.7748C228.867 49.2658 228.702 51.0053 228.867 52.7447C229.364 56.2237 230.524 59.04 232.595 61.525C234.003 63.2645 235.245 64.507 236.654 65.501C238.145 66.5778 239.553 67.3233 240.878 67.9032C241.872 68.2345 242.783 68.5658 243.529 68.8143C244.357 69.1457 245.158 69.3942 245.931 69.5598C246.262 69.7255 246.759 69.8083 247.173 69.8912C247.726 69.9464 248.278 70.0016 248.83 70.0568C250.072 70.2225 251.315 70.471 252.557 70.5538C253.386 70.609 254.186 70.6919 254.96 70.8023L255.539 70.8851C256.865 71.0508 258.273 71.1336 259.598 71.2165C260.15 71.2717 260.703 71.2993 261.255 71.2993C261.31 71.2993 261.365 71.2993 261.421 71.2993H261.503C261.503 71.2441 261.531 71.2165 261.586 71.2165L261.835 71.1337L261.006 70.7195C260.675 70.609 260.344 70.471 260.012 70.3053C258.439 69.6427 256.865 68.8972 255.208 67.8203C254.214 67.2405 253.22 66.495 252.309 65.8323ZM235.66 46.8636C235.77 47.0293 235.853 47.1673 235.908 47.2778C236.074 47.5263 236.239 47.7748 236.405 48.0233C237.151 48.8516 237.73 49.7628 238.393 50.6739C238.835 51.3366 239.332 52.0269 239.884 52.7447C241.044 54.3186 242.369 55.8924 243.86 57.3834C246.262 59.7855 248.416 61.7735 250.487 63.4302C251.729 64.4242 252.806 65.1697 253.8 65.9152C254.021 66.0256 254.214 66.1637 254.38 66.3293C255.125 66.7435 255.788 67.2405 256.616 67.6547L256.782 67.489L255.954 66.7435C255.457 66.3017 254.96 65.86 254.463 65.4182C252.806 63.9272 251.232 62.1877 249.658 60.1169C248.83 59.04 247.919 57.8804 247.09 56.7207L244.937 53.8216C243.943 52.4962 242.949 51.1709 241.789 50.0113C241.237 49.459 240.547 48.962 239.718 48.5203C238.807 47.9404 237.896 47.5263 236.819 47.0293C236.654 46.9741 236.46 46.9188 236.239 46.8636L235.494 46.5323L235.66 46.8636Z" fill="white"/>
</g>
</svg>
