<svg width="29" height="12" viewBox="0 0 29 12" fill="none" xmlns="http://www.w3.org/2000/svg">
<path d="M2.10077 6.42866L0.284314 5.9943L0.939817 0.16585H7.40007V2.006H2.81155L2.52724 4.55693C2.67993 4.46742 2.91159 4.37265 3.22223 4.27261C3.53287 4.16731 3.88036 4.11466 4.26472 4.11466C4.82281 4.11466 5.31773 4.20154 5.74947 4.37528C6.18121 4.54903 6.54713 4.80175 6.84724 5.13345C7.15261 5.46515 7.38428 5.87057 7.54223 6.34969C7.70018 6.82881 7.77916 7.37111 7.77916 7.9766C7.77916 8.48731 7.70018 8.97433 7.54223 9.43766C7.38428 9.89572 7.14472 10.3064 6.82355 10.6697C6.50238 11.0277 6.0996 11.3094 5.61521 11.5147C5.13082 11.7201 4.55693 11.8227 3.89353 11.8227C3.39861 11.8227 2.91949 11.749 2.45616 11.6016C1.9981 11.4542 1.58479 11.2357 1.21623 10.9461C0.852943 10.6565 0.560731 10.3064 0.339598 9.89572C0.123729 9.47978 0.0105302 9.00592 0 8.47415H2.25872C2.29031 8.80058 2.37455 9.08227 2.51144 9.31919C2.6536 9.55086 2.84051 9.72987 3.07218 9.85623C3.30384 9.98259 3.57499 10.0458 3.88563 10.0458C4.17521 10.0458 4.42267 9.99049 4.62801 9.87993C4.83334 9.76936 4.99919 9.61667 5.12556 9.42186C5.25192 9.22179 5.34406 8.99013 5.40197 8.72687C5.46515 8.45835 5.49675 8.16877 5.49675 7.85813C5.49675 7.54749 5.45989 7.26581 5.38618 7.01309C5.31247 6.76036 5.19927 6.54186 5.04658 6.35759C4.89389 6.17331 4.69909 6.03115 4.46216 5.93111C4.23049 5.83108 3.95934 5.78106 3.6487 5.78106C3.22749 5.78106 2.90106 5.84687 2.6694 5.9785C2.443 6.11013 2.25345 6.26018 2.10077 6.42866Z" fill="white"/>
<path d="M16.9878 4.90442V6.89462C16.9878 7.7581 16.8956 8.50311 16.7114 9.12965C16.5271 9.75093 16.2612 10.2616 15.9137 10.6618C15.5715 11.0567 15.1634 11.3489 14.6896 11.5384C14.2157 11.728 13.6892 11.8227 13.1101 11.8227C12.6467 11.8227 12.215 11.7648 11.8148 11.649C11.4147 11.5279 11.054 11.341 10.7329 11.0883C10.417 10.8355 10.1432 10.517 9.91152 10.1327C9.68512 9.74303 9.51137 9.27971 9.39027 8.74267C9.26918 8.20563 9.20863 7.58962 9.20863 6.89462V4.90442C9.20863 4.04095 9.30077 3.30121 9.48504 2.68519C9.67459 2.06391 9.94047 1.55583 10.2827 1.16095C10.6302 0.766069 11.0409 0.47649 11.5147 0.292212C11.9886 0.102669 12.5151 0.00789762 13.0943 0.00789762C13.5576 0.00789762 13.9867 0.0684461 14.3816 0.189543C14.7817 0.305375 15.1424 0.48702 15.4635 0.734479C15.7847 0.981938 16.0585 1.30048 16.2849 1.69009C16.5113 2.07444 16.685 2.53514 16.8061 3.07218C16.9272 3.60395 16.9878 4.2147 16.9878 4.90442ZM14.7054 7.19473V4.59642C14.7054 4.18047 14.6817 3.81718 14.6343 3.50654C14.5922 3.1959 14.5264 2.93265 14.4369 2.71678C14.3473 2.49565 14.2368 2.31664 14.1052 2.17974C13.9735 2.04285 13.8235 1.94282 13.655 1.87963C13.4865 1.81645 13.2996 1.78486 13.0943 1.78486C12.8363 1.78486 12.6072 1.83488 12.4072 1.93492C12.2124 2.03495 12.0465 2.19554 11.9096 2.41667C11.7727 2.63254 11.6674 2.92212 11.5937 3.28541C11.5253 3.64344 11.491 4.08044 11.491 4.59642V7.19473C11.491 7.61068 11.5121 7.9766 11.5542 8.2925C11.6016 8.60841 11.6701 8.87956 11.7596 9.10596C11.8543 9.32709 11.9649 9.50874 12.0913 9.6509C12.2229 9.78779 12.3729 9.88782 12.5414 9.951C12.7152 10.0142 12.9047 10.0458 13.1101 10.0458C13.3628 10.0458 13.5865 9.99576 13.7814 9.89572C13.9814 9.79042 14.1499 9.6272 14.2868 9.40607C14.429 9.17967 14.5343 8.88483 14.6027 8.52154C14.6711 8.15824 14.7054 7.71598 14.7054 7.19473Z" fill="white"/>
<path d="M18.5041 2.9853V2.37718C18.5041 1.94018 18.5989 1.54267 18.7884 1.18464C18.978 0.826618 19.257 0.539671 19.6256 0.323803C19.9941 0.107934 20.4469 0 20.984 0C21.5368 0 21.9975 0.107934 22.3661 0.323803C22.7399 0.539671 23.0189 0.826618 23.2032 1.18464C23.3928 1.54267 23.4875 1.94018 23.4875 2.37718V2.9853C23.4875 3.41177 23.3928 3.80402 23.2032 4.16205C23.0189 4.52007 22.7425 4.80702 22.374 5.02289C22.0054 5.23876 21.5473 5.34669 20.9998 5.34669C20.4575 5.34669 19.9994 5.23876 19.6256 5.02289C19.257 4.80702 18.978 4.52007 18.7884 4.16205C18.5989 3.80402 18.5041 3.41177 18.5041 2.9853ZM20.0126 2.37718V2.9853C20.0126 3.16958 20.0468 3.34596 20.1152 3.51444C20.189 3.67766 20.2995 3.81192 20.4469 3.91722C20.5996 4.01726 20.7839 4.06728 20.9998 4.06728C21.2262 4.06728 21.4105 4.01726 21.5526 3.91722C21.6948 3.81192 21.8001 3.67766 21.8685 3.51444C21.937 3.34596 21.9712 3.16958 21.9712 2.9853V2.37718C21.9712 2.18238 21.9343 2.00336 21.8606 1.84015C21.7922 1.67166 21.6842 1.5374 21.5368 1.43737C21.3947 1.33207 21.2104 1.27941 20.984 1.27941C20.7734 1.27941 20.5944 1.33207 20.4469 1.43737C20.2995 1.5374 20.189 1.67166 20.1152 1.84015C20.0468 2.00336 20.0126 2.18238 20.0126 2.37718ZM24.0009 9.45345V8.84534C24.0009 8.4136 24.0956 8.01872 24.2852 7.66069C24.48 7.30267 24.7617 7.01572 25.1302 6.79985C25.5041 6.58398 25.9621 6.47605 26.5044 6.47605C27.052 6.47605 27.51 6.58398 27.8786 6.79985C28.2472 7.01572 28.5262 7.30267 28.7158 7.66069C28.9053 8.01872 29.0001 8.4136 29.0001 8.84534V9.45345C29.0001 9.88519 28.9053 10.2801 28.7158 10.6381C28.5315 10.9961 28.2551 11.2831 27.8865 11.4989C27.5179 11.7148 27.0625 11.8227 26.5202 11.8227C25.9726 11.8227 25.512 11.7148 25.1381 11.4989C24.7643 11.2831 24.48 10.9961 24.2852 10.6381C24.0956 10.2801 24.0009 9.88519 24.0009 9.45345ZM25.5172 8.84534V9.45345C25.5172 9.643 25.5593 9.82201 25.6436 9.99049C25.7278 10.159 25.8437 10.2932 25.9911 10.3933C26.1438 10.4933 26.3201 10.5433 26.5202 10.5433C26.7729 10.5433 26.9704 10.4933 27.1125 10.3933C27.2547 10.2932 27.3521 10.159 27.4047 9.99049C27.4627 9.82201 27.4916 9.643 27.4916 9.45345V8.84534C27.4916 8.65579 27.4548 8.47941 27.3811 8.3162C27.3073 8.14771 27.1968 8.01345 27.0494 7.91342C26.9072 7.80812 26.7256 7.75547 26.5044 7.75547C26.2833 7.75547 26.099 7.80812 25.9516 7.91342C25.8094 8.01345 25.7015 8.14771 25.6278 8.3162C25.5541 8.47941 25.5172 8.65579 25.5172 8.84534ZM27.0652 1.80856L21.4499 10.796L20.3443 10.2116L25.9595 1.22413L27.0652 1.80856Z" fill="white"/>
</svg>
