<svg width="98" height="40" viewBox="0 0 98 40" fill="none" xmlns="http://www.w3.org/2000/svg">
<path fill-rule="evenodd" clip-rule="evenodd" d="M48.0233 0.289026C41.8019 1.64872 27.9381 7.14547 19.4285 11.6275C15.9166 13.4769 12.1193 15.4494 10.99 16.0103C9.86117 16.5711 8.29928 17.8613 7.51972 18.877C4.84346 22.366 5.87954 22.3235 11.9183 18.6971C21.7327 12.8029 39.7392 4.90194 41.8002 5.58483C42.155 5.70241 39.8258 7.5457 36.6248 9.68102C29.6582 14.3282 24.8326 19.2403 27.2341 19.2403C27.5566 19.2403 30.8453 17.8486 34.5416 16.1483C41.8813 12.7708 45.5553 11.3581 45.9573 11.7578C46.1 11.8997 45.1799 13.1871 43.9123 14.6191C42.5786 16.1251 41.8141 17.4279 42.0978 17.71C42.3815 17.9921 45.0745 17.3435 48.4875 16.1715C54.9466 13.9528 57.1082 13.9346 55.0471 16.1163C52.1382 19.1945 54.6051 19.37 65.2358 16.8416C71.3717 15.382 81.401 13.6685 89.6663 12.6665C93.428 12.2105 92.7051 12.168 84.9468 12.3872C75.2217 12.6615 73.2345 12.8023 65.0781 13.7927C62.2436 14.1372 59.7872 14.2829 59.6206 14.1173C59.4535 13.9511 59.7172 13.2081 60.2069 12.4656C61.0243 11.2251 61.0232 11.0545 60.1936 10.3705C59.4291 9.73954 58.5562 9.81241 54.4902 10.8464C51.8495 11.5177 49.4897 12.0664 49.2465 12.0653C49.0028 12.0642 49.6185 11.0556 50.6146 9.82345C53.468 6.2931 51.4941 5.98009 44.2549 8.81486C40.3793 10.3324 40.1089 10.1039 43.1222 7.85871C46.8607 5.07308 51.0833 0.927194 50.7418 0.377906C50.4447 -0.100719 49.89 -0.118386 48.0233 0.289026Z" fill="white"/>
<path d="M7.6141 35.7597H9.71512C9.64789 36.5609 9.42378 37.2753 9.04279 37.9028C8.66181 38.5247 8.12675 39.0149 7.43761 39.3735C6.74848 39.7321 5.91087 39.9113 4.92479 39.9113C4.16842 39.9113 3.48769 39.7769 2.8826 39.5079C2.27751 39.2334 1.75925 38.8468 1.32785 38.3482C0.896436 37.8439 0.565875 37.236 0.336163 36.5245C0.112054 35.8129 0 35.0174 0 34.1377V33.1208C0 32.2412 0.114856 31.4456 0.344567 30.7341C0.579882 30.0225 0.916045 29.4146 1.35306 28.9104C1.79007 28.4005 2.31392 28.0112 2.92462 27.7422C3.54092 27.4733 4.23286 27.3388 5.00043 27.3388C5.9753 27.3388 6.7989 27.5181 7.47123 27.8767C8.14356 28.2353 8.66461 28.7311 9.03439 29.3642C9.40977 29.9973 9.63948 30.7229 9.72352 31.5409H7.6225C7.56648 31.0142 7.44322 30.5632 7.25272 30.1878C7.06783 29.8124 6.7933 29.5267 6.42912 29.3306C6.06495 29.1289 5.58871 29.0281 5.00043 29.0281C4.5186 29.0281 4.09839 29.1177 3.73982 29.297C3.38124 29.4763 3.0815 29.7396 2.84058 30.087C2.59966 30.4343 2.41757 30.8629 2.29431 31.3728C2.17666 31.877 2.11783 32.4541 2.11783 33.104V34.1377C2.11783 34.754 2.17105 35.3143 2.27751 35.8185C2.38956 36.3172 2.55764 36.7458 2.78175 37.1044C3.01146 37.4629 3.3028 37.7403 3.65578 37.9364C4.00875 38.1325 4.43175 38.2305 4.92479 38.2305C5.52428 38.2305 6.00892 38.1353 6.3787 37.9448C6.75408 37.7543 7.03702 37.477 7.22751 37.1128C7.42361 36.743 7.55247 36.292 7.6141 35.7597Z" fill="white"/>
<path d="M11.043 35.2975V35.1042C11.043 34.4487 11.1382 33.8408 11.3287 33.2805C11.5192 32.7146 11.7937 32.2244 12.1523 31.8098C12.5165 31.3896 12.9591 31.0646 13.4801 30.8349C14.0068 30.5996 14.6007 30.482 15.2618 30.482C15.9285 30.482 16.5224 30.5996 17.0435 30.8349C17.5701 31.0646 18.0156 31.3896 18.3797 31.8098C18.7439 32.2244 19.0212 32.7146 19.2117 33.2805C19.4022 33.8408 19.4975 34.4487 19.4975 35.1042V35.2975C19.4975 35.953 19.4022 36.5609 19.2117 37.1212C19.0212 37.6815 18.7439 38.1717 18.3797 38.5919C18.0156 39.0065 17.5729 39.3315 17.0519 39.5668C16.5308 39.7965 15.9397 39.9113 15.2786 39.9113C14.6119 39.9113 14.0152 39.7965 13.4886 39.5668C12.9675 39.3315 12.5249 39.0065 12.1607 38.5919C11.7965 38.1717 11.5192 37.6815 11.3287 37.1212C11.1382 36.5609 11.043 35.953 11.043 35.2975ZM13.0683 35.1042V35.2975C13.0683 35.7065 13.1104 36.0931 13.1944 36.4573C13.2785 36.8214 13.4101 37.1408 13.5894 37.4153C13.7687 37.6899 13.9984 37.9056 14.2785 38.0624C14.5587 38.2193 14.892 38.2978 15.2786 38.2978C15.654 38.2978 15.979 38.2193 16.2535 38.0624C16.5336 37.9056 16.7633 37.6899 16.9426 37.4153C17.1219 37.1408 17.2536 36.8214 17.3376 36.4573C17.4273 36.0931 17.4721 35.7065 17.4721 35.2975V35.1042C17.4721 34.7008 17.4273 34.3198 17.3376 33.9612C17.2536 33.5971 17.1191 33.2749 16.9342 32.9948C16.7549 32.7146 16.5252 32.4961 16.2451 32.3393C15.9706 32.1768 15.6428 32.0955 15.2618 32.0955C14.8808 32.0955 14.5503 32.1768 14.2701 32.3393C13.9956 32.4961 13.7687 32.7146 13.5894 32.9948C13.4101 33.2749 13.2785 33.5971 13.1944 33.9612C13.1104 34.3198 13.0683 34.7008 13.0683 35.1042Z" fill="white"/>
<path d="M23.3633 26.8346V39.7433H21.3296V26.8346H23.3633Z" fill="white"/>
<path d="M25.1954 35.2975V35.1042C25.1954 34.4487 25.2907 33.8408 25.4812 33.2805C25.6717 32.7146 25.9462 32.2244 26.3048 31.8098C26.669 31.3896 27.1116 31.0646 27.6326 30.8349C28.1593 30.5996 28.7532 30.482 29.4143 30.482C30.081 30.482 30.6749 30.5996 31.196 30.8349C31.7226 31.0646 32.168 31.3896 32.5322 31.8098C32.8964 32.2244 33.1737 32.7146 33.3642 33.2805C33.5547 33.8408 33.6499 34.4487 33.6499 35.1042V35.2975C33.6499 35.953 33.5547 36.5609 33.3642 37.1212C33.1737 37.6815 32.8964 38.1717 32.5322 38.5919C32.168 39.0065 31.7254 39.3315 31.2044 39.5668C30.6833 39.7965 30.0922 39.9113 29.4311 39.9113C28.7644 39.9113 28.1677 39.7965 27.641 39.5668C27.12 39.3315 26.6774 39.0065 26.3132 38.5919C25.949 38.1717 25.6717 37.6815 25.4812 37.1212C25.2907 36.5609 25.1954 35.953 25.1954 35.2975ZM27.2208 35.1042V35.2975C27.2208 35.7065 27.2628 36.0931 27.3469 36.4573C27.4309 36.8214 27.5626 37.1408 27.7419 37.4153C27.9212 37.6899 28.1509 37.9056 28.431 38.0624C28.7111 38.2193 29.0445 38.2978 29.4311 38.2978C29.8065 38.2978 30.1314 38.2193 30.406 38.0624C30.6861 37.9056 30.9158 37.6899 31.0951 37.4153C31.2744 37.1408 31.4061 36.8214 31.4901 36.4573C31.5797 36.0931 31.6246 35.7065 31.6246 35.2975V35.1042C31.6246 34.7008 31.5797 34.3198 31.4901 33.9612C31.4061 33.5971 31.2716 33.2749 31.0867 32.9948C30.9074 32.7146 30.6777 32.4961 30.3976 32.3393C30.123 32.1768 29.7953 32.0955 29.4143 32.0955C29.0333 32.0955 28.7027 32.1768 28.4226 32.3393C28.1481 32.4961 27.9212 32.7146 27.7419 32.9948C27.5626 33.2749 27.4309 33.5971 27.3469 33.9612C27.2628 34.3198 27.2208 34.7008 27.2208 35.1042Z" fill="white"/>
<path d="M37.3814 32.3813V39.7433H35.356V30.65H37.2889L37.3814 32.3813ZM40.1631 30.5912L40.1463 32.4737C40.023 32.4513 39.8886 32.4345 39.7429 32.4233C39.6028 32.4121 39.4628 32.4065 39.3227 32.4065C38.9753 32.4065 38.67 32.4569 38.4067 32.5578C38.1433 32.653 37.922 32.7931 37.7427 32.978C37.5691 33.1573 37.4346 33.3758 37.3393 33.6335C37.2441 33.8912 37.1881 34.1798 37.1713 34.4991L36.709 34.5327C36.709 33.9612 36.7651 33.4318 36.8771 32.9444C36.9892 32.4569 37.1572 32.0283 37.3814 31.6585C37.6111 31.2887 37.8968 31.0002 38.2386 30.7929C38.5859 30.5856 38.9865 30.482 39.4404 30.482C39.5636 30.482 39.6953 30.4932 39.8354 30.5156C39.981 30.538 40.0903 30.5632 40.1631 30.5912Z" fill="white"/>
<path d="M42.491 27.5069H44.3736L47.9117 36.9447L51.4414 27.5069H53.3239L48.6512 39.7433H47.1553L42.491 27.5069ZM41.6338 27.5069H43.4239L43.7348 35.6757V39.7433H41.6338V27.5069ZM52.391 27.5069H54.1895V39.7433H52.0801V35.6757L52.391 27.5069Z" fill="white"/>
<path d="M60.501 39.9113C59.8287 39.9113 59.2208 39.8021 58.6773 39.5836C58.1394 39.3595 57.68 39.0485 57.299 38.6507C56.9236 38.2529 56.6351 37.7851 56.4334 37.2472C56.2317 36.7094 56.1309 36.1295 56.1309 35.5076V35.1714C56.1309 34.4599 56.2345 33.8156 56.4418 33.2385C56.6491 32.6614 56.9377 32.1684 57.3074 31.7594C57.6772 31.3448 58.1142 31.0282 58.6185 30.8097C59.1227 30.5912 59.669 30.482 60.2573 30.482C60.9072 30.482 61.4759 30.5912 61.9633 30.8097C62.4507 31.0282 62.8541 31.3364 63.1735 31.7342C63.4984 32.1264 63.7394 32.5942 63.8962 33.1376C64.0587 33.6811 64.14 34.2806 64.14 34.9361V35.8017H57.1141V34.3478H62.1398V34.1882C62.1286 33.824 62.0557 33.4822 61.9213 33.1629C61.7924 32.8435 61.5935 32.5858 61.3246 32.3897C61.0557 32.1936 60.6971 32.0955 60.2489 32.0955C59.9127 32.0955 59.613 32.1684 59.3496 32.314C59.0919 32.4541 58.8762 32.6586 58.7025 32.9275C58.5288 33.1965 58.3944 33.5214 58.2991 33.9024C58.2095 34.2778 58.1647 34.7008 58.1647 35.1714V35.5076C58.1647 35.9054 58.2179 36.2752 58.3243 36.6169C58.4364 36.9531 58.5989 37.2472 58.8118 37.4994C59.0247 37.7515 59.2824 37.9504 59.5849 38.0961C59.8875 38.2361 60.2321 38.3062 60.6186 38.3062C61.1061 38.3062 61.5403 38.2081 61.9213 38.012C62.3023 37.8159 62.6328 37.5386 62.913 37.18L63.9803 38.2137C63.7842 38.4995 63.5293 38.774 63.2155 39.0373C62.9018 39.295 62.518 39.5051 62.0641 39.6676C61.6159 39.8301 61.0949 39.9113 60.501 39.9113Z" fill="white"/>
<path d="M69.8884 30.65V32.1292H64.7619V30.65H69.8884ZM66.241 28.423H68.2664V37.2304C68.2664 37.5106 68.3056 37.7263 68.384 37.8776C68.4681 38.0232 68.5829 38.1213 68.7286 38.1717C68.8743 38.2221 69.0451 38.2473 69.2412 38.2473C69.3813 38.2473 69.5158 38.2389 69.6446 38.2221C69.7735 38.2053 69.8771 38.1885 69.9556 38.1717L69.964 39.718C69.7959 39.7685 69.5998 39.8133 69.3757 39.8525C69.1572 39.8917 68.9051 39.9113 68.6193 39.9113C68.1543 39.9113 67.7425 39.8301 67.3839 39.6676C67.0254 39.4995 66.7452 39.2278 66.5435 38.8524C66.3418 38.477 66.241 37.9784 66.241 37.3565V28.423Z" fill="white"/>
<path d="M73.4853 32.3813V39.7433H71.4599V30.65H73.3929L73.4853 32.3813ZM76.267 30.5912L76.2502 32.4737C76.127 32.4513 75.9925 32.4345 75.8468 32.4233C75.7068 32.4121 75.5667 32.4065 75.4266 32.4065C75.0793 32.4065 74.7739 32.4569 74.5106 32.5578C74.2473 32.653 74.026 32.7931 73.8467 32.978C73.673 33.1573 73.5385 33.3758 73.4433 33.6335C73.348 33.8912 73.292 34.1798 73.2752 34.4991L72.813 34.5327C72.813 33.9612 72.869 33.4318 72.9811 32.9444C73.0931 32.4569 73.2612 32.0283 73.4853 31.6585C73.715 31.2887 74.0007 31.0002 74.3425 30.7929C74.6899 30.5856 75.0905 30.482 75.5443 30.482C75.6676 30.482 75.7992 30.4932 75.9393 30.5156C76.085 30.538 76.1942 30.5632 76.267 30.5912Z" fill="white"/>
<path d="M79.7043 30.65V39.7433H77.6705V30.65H79.7043ZM77.5361 28.2633C77.5361 27.9551 77.6369 27.7002 77.8386 27.4985C78.0459 27.2912 78.3317 27.1876 78.6958 27.1876C79.0544 27.1876 79.3373 27.2912 79.5446 27.4985C79.7519 27.7002 79.8556 27.9551 79.8556 28.2633C79.8556 28.5658 79.7519 28.8179 79.5446 29.0196C79.3373 29.2213 79.0544 29.3222 78.6958 29.3222C78.3317 29.3222 78.0459 29.2213 77.8386 29.0196C77.6369 28.8179 77.5361 28.5658 77.5361 28.2633Z" fill="white"/>
<path d="M85.6376 38.2978C85.9682 38.2978 86.2651 38.2333 86.5284 38.1045C86.7974 37.97 87.0131 37.7851 87.1755 37.5498C87.3436 37.3145 87.4361 37.0427 87.4529 36.7346H89.3606C89.3494 37.3229 89.1757 37.8579 88.8396 38.3398C88.5034 38.8216 88.058 39.2054 87.5033 39.4911C86.9486 39.7713 86.3351 39.9113 85.6628 39.9113C84.9681 39.9113 84.363 39.7937 83.8475 39.5584C83.3321 39.3175 82.9035 38.9869 82.5617 38.5667C82.2199 38.1465 81.9622 37.6618 81.7885 37.1128C81.6204 36.5637 81.5364 35.9754 81.5364 35.3479V35.0538C81.5364 34.4263 81.6204 33.838 81.7885 33.2889C81.9622 32.7343 82.2199 32.2468 82.5617 31.8266C82.9035 31.4064 83.3321 31.0786 83.8475 30.8433C84.363 30.6024 84.9653 30.482 85.6544 30.482C86.3828 30.482 87.0215 30.6276 87.5705 30.919C88.1196 31.2047 88.551 31.6053 88.8648 32.1208C89.1841 32.6306 89.3494 33.2245 89.3606 33.9024H87.4529C87.4361 33.5663 87.352 33.2637 87.2008 32.9948C87.0551 32.7202 86.8478 32.5017 86.5789 32.3393C86.3155 32.1768 85.999 32.0955 85.6292 32.0955C85.2202 32.0955 84.8812 32.1796 84.6123 32.3477C84.3434 32.5101 84.1333 32.7343 83.982 33.02C83.8307 33.3001 83.7215 33.6167 83.6542 33.9697C83.5926 34.317 83.5618 34.6784 83.5618 35.0538V35.3479C83.5618 35.7233 83.5926 36.0875 83.6542 36.4405C83.7159 36.7934 83.8223 37.11 83.9736 37.3901C84.1305 37.6646 84.3434 37.886 84.6123 38.054C84.8812 38.2165 85.223 38.2978 85.6376 38.2978Z" fill="white"/>
<path d="M96.0166 37.2809C96.0166 37.0792 95.9662 36.8971 95.8654 36.7346C95.7645 36.5665 95.5712 36.4152 95.2855 36.2808C95.0053 36.1463 94.5908 36.023 94.0417 35.911C93.5599 35.8045 93.1172 35.6785 92.7138 35.5328C92.316 35.3815 91.9743 35.1995 91.6885 34.9865C91.4028 34.7736 91.1815 34.5215 91.0246 34.2302C90.8677 33.9388 90.7893 33.6027 90.7893 33.2217C90.7893 32.8519 90.8705 32.5017 91.033 32.1712C91.1955 31.8406 91.428 31.5493 91.7306 31.2972C92.0331 31.045 92.4001 30.8461 92.8315 30.7005C93.2685 30.5548 93.7559 30.482 94.2938 30.482C95.0558 30.482 95.7085 30.6108 96.252 30.8685C96.801 31.1207 97.2212 31.4652 97.5126 31.9022C97.8039 32.3337 97.9496 32.8211 97.9496 33.3646H95.9242C95.9242 33.1236 95.8626 32.8995 95.7393 32.6922C95.6217 32.4793 95.4424 32.3084 95.2014 32.1796C94.9605 32.0451 94.658 31.9779 94.2938 31.9779C93.9464 31.9779 93.6579 32.0339 93.4282 32.146C93.2041 32.2524 93.036 32.3925 92.9239 32.5662C92.8175 32.7399 92.7643 32.9303 92.7643 33.1376C92.7643 33.2889 92.7923 33.4262 92.8483 33.5495C92.9099 33.6671 93.0108 33.7764 93.1509 33.8772C93.2909 33.9725 93.4814 34.0621 93.7223 34.1461C93.9689 34.2302 94.277 34.3114 94.6468 34.3899C95.3415 34.5355 95.9382 34.7232 96.4368 34.9529C96.9411 35.177 97.3277 35.4684 97.5966 35.827C97.8655 36.1799 98 36.6281 98 37.1716C98 37.575 97.9132 37.9448 97.7395 38.2809C97.5714 38.6115 97.3249 38.9 96.9999 39.1466C96.675 39.3875 96.2856 39.5752 95.8318 39.7096C95.3835 39.8441 94.8793 39.9113 94.319 39.9113C93.4954 39.9113 92.7979 39.7657 92.2264 39.4743C91.6549 39.1774 91.2207 38.7992 90.9238 38.3398C90.6324 37.8747 90.4868 37.3929 90.4868 36.8943H92.4449C92.4673 37.2697 92.571 37.5694 92.7559 37.7935C92.9464 38.012 93.1817 38.1717 93.4618 38.2725C93.7475 38.3678 94.0417 38.4154 94.3442 38.4154C94.7084 38.4154 95.0138 38.3678 95.2603 38.2725C95.5068 38.1717 95.6945 38.0372 95.8233 37.8691C95.9522 37.6955 96.0166 37.4994 96.0166 37.2809Z" fill="white"/>
</svg>
