<svg width="24" height="24" viewBox="0 0 24 24" fill="none" xmlns="http://www.w3.org/2000/svg">
<path d="M11.2902 8.72938V5.76988H8.33041V4.37088H11.2902V1.41113H12.6892V4.37088H15.6487V5.76988H12.6892V8.72938H11.2902ZM7.21491 21.3554C6.74591 21.3554 6.34699 21.1912 6.01816 20.8629C5.68916 20.5345 5.52466 20.1359 5.52466 19.6669C5.52466 19.1977 5.68883 18.7987 6.01716 18.4699C6.34549 18.141 6.74416 17.9766 7.21316 17.9766C7.68233 17.9766 8.08133 18.1408 8.41016 18.4691C8.73899 18.7975 8.90341 19.1961 8.90341 19.6651C8.90341 20.1341 8.73924 20.5331 8.41091 20.8621C8.08258 21.191 7.68391 21.3554 7.21491 21.3554ZM16.7457 21.3554C16.2767 21.3554 15.8777 21.1912 15.5487 20.8629C15.2198 20.5345 15.0554 20.1359 15.0554 19.6669C15.0554 19.1977 15.2196 18.7987 15.5479 18.4699C15.8762 18.141 16.2749 17.9766 16.7439 17.9766C17.2131 17.9766 17.6121 18.1408 17.9409 18.4691C18.2697 18.7975 18.4342 19.1961 18.4342 19.6651C18.4342 20.1341 18.27 20.5331 17.9417 20.8621C17.6133 21.191 17.2147 21.3554 16.7457 21.3554ZM1.70166 3.78988V2.39088H4.45441L8.56641 11.0574H15.2834C15.3411 11.0574 15.3923 11.043 15.4372 11.0141C15.482 10.9853 15.5205 10.9452 15.5527 10.8939L19.1902 4.37088H20.7842L16.8054 11.5814C16.6547 11.8615 16.4454 12.0808 16.1774 12.2391C15.9094 12.3975 15.6219 12.4766 15.3149 12.4766H8.14016L6.96216 14.6324C6.91083 14.7092 6.90924 14.7925 6.95741 14.8824C7.00541 14.972 7.07749 15.0169 7.17366 15.0169H18.4342V16.4159H7.23491C6.58908 16.4159 6.10074 16.1431 5.76991 15.5976C5.43908 15.0521 5.42783 14.497 5.73616 13.9324L7.16316 11.3866L3.56741 3.78988H1.70166Z" fill="#A60F08"/>
</svg>
