<svg width="31" height="31" viewBox="0 0 31 31" fill="none" xmlns="http://www.w3.org/2000/svg">
<path fill-rule="evenodd" clip-rule="evenodd" d="M20.6667 4.18848H10.3333C6.7665 4.18848 3.875 7.07998 3.875 10.6468V20.9801C3.875 24.547 6.7665 27.4385 10.3333 27.4385H20.6667C24.2335 27.4385 27.125 24.547 27.125 20.9801V10.6468C27.125 7.07998 24.2335 4.18848 20.6667 4.18848ZM24.8646 20.9801C24.8575 23.2956 22.9821 25.171 20.6667 25.1781H10.3333C8.01783 25.171 6.14251 23.2956 6.13542 20.9801V10.6468C6.14251 8.3313 8.01783 6.45598 10.3333 6.44889H20.6667C22.9821 6.45598 24.8575 8.3313 24.8646 10.6468V20.9801ZM21.6354 10.9697C22.3488 10.9697 22.9271 10.3914 22.9271 9.67806C22.9271 8.9647 22.3488 8.38639 21.6354 8.38639C20.922 8.38639 20.3438 8.9647 20.3438 9.67806C20.3438 10.3914 20.922 10.9697 21.6354 10.9697ZM15.5 10.001C12.2898 10.001 9.6875 12.6033 9.6875 15.8135C9.6875 19.0237 12.2898 21.626 15.5 21.626C18.7102 21.626 21.3125 19.0237 21.3125 15.8135C21.316 14.2708 20.7046 12.7904 19.6138 11.6996C18.523 10.6088 17.0426 9.99754 15.5 10.001ZM11.9479 15.8135C11.9479 17.7753 13.5382 19.3656 15.5 19.3656C17.4618 19.3656 19.0521 17.7753 19.0521 15.8135C19.0521 13.8517 17.4618 12.2614 15.5 12.2614C13.5382 12.2614 11.9479 13.8517 11.9479 15.8135Z" fill="white"/>
</svg>
