<svg width="31" height="31" viewBox="0 0 31 31" fill="none" xmlns="http://www.w3.org/2000/svg">
<path d="M14.5836 11.276V7.45329H10.7606V5.64625H14.5836V1.82324H16.3907V5.64625H20.2134V7.45329H16.3907V11.276H14.5836ZM9.31977 27.5846C8.71398 27.5846 8.19871 27.3725 7.77397 26.9484C7.34901 26.5243 7.13653 26.0094 7.13653 25.4036C7.13653 24.7976 7.34858 24.2822 7.77267 23.8575C8.19677 23.4327 8.71172 23.2203 9.31751 23.2203C9.92351 23.2203 10.4389 23.4324 10.8636 23.8565C11.2884 24.2806 11.5007 24.7955 11.5007 25.4013C11.5007 26.0071 11.2887 26.5225 10.8646 26.9474C10.4405 27.3722 9.92556 27.5846 9.31977 27.5846ZM21.6303 27.5846C21.0245 27.5846 20.5092 27.3725 20.0842 26.9484C19.6595 26.5243 19.4471 26.0094 19.4471 25.4036C19.4471 24.7976 19.6591 24.2822 20.0832 23.8575C20.5073 23.4327 21.0223 23.2203 21.6281 23.2203C22.2341 23.2203 22.7494 23.4324 23.1742 23.8565C23.5989 24.2806 23.8113 24.7955 23.8113 25.4013C23.8113 26.0071 23.5993 26.5225 23.1752 26.9474C22.7511 27.3722 22.2361 27.5846 21.6303 27.5846ZM2.19849 4.89579V3.08875H5.75412L11.0655 14.283H19.7416C19.8161 14.283 19.8823 14.2644 19.9402 14.2271C19.9981 14.1899 20.0478 14.1381 20.0894 14.0718L24.7878 5.64625H26.8467L21.7075 14.9598C21.5129 15.3217 21.2425 15.6049 20.8963 15.8094C20.5502 16.0139 20.1788 16.1162 19.7823 16.1162H10.5149L8.9933 18.9007C8.92699 18.9999 8.92495 19.1076 8.98716 19.2236C9.04916 19.3394 9.14227 19.3973 9.26649 19.3973H23.8113V21.2044H9.3456C8.5114 21.2044 7.88064 20.8521 7.45331 20.1475C7.02598 19.4429 7.01145 18.7259 7.40972 17.9965L9.25292 14.7083L4.60841 4.89579H2.19849Z" fill="white"/>
</svg>
