<svg width="31" height="31" viewBox="0 0 31 31" fill="none" xmlns="http://www.w3.org/2000/svg">
<path fill-rule="evenodd" clip-rule="evenodd" d="M5.8125 4.18848C4.74244 4.18848 3.875 5.05592 3.875 6.12598V25.501C3.875 26.571 4.74244 27.4385 5.8125 27.4385H25.1875C26.2575 27.4385 27.125 26.571 27.125 25.501V6.12598C27.125 5.05592 26.2575 4.18848 25.1875 4.18848H5.8125ZM11.006 9.35866C11.0133 10.5938 10.0887 11.3549 8.99159 11.3494C7.95805 11.344 7.05711 10.5212 7.06256 9.36048C7.06801 8.26881 7.93081 7.39149 9.05153 7.41692C10.1886 7.44235 11.0133 8.27608 11.006 9.35866ZM15.8613 12.9224H12.6063H12.6045V23.9789H16.0447V23.7209C16.0447 23.2302 16.0443 22.7394 16.0439 22.2484C16.0429 20.9389 16.0417 19.628 16.0484 18.3189C16.0502 18.001 16.0647 17.6705 16.1465 17.3671C16.4534 16.2337 17.4725 15.5017 18.6096 15.6816C19.3397 15.7959 19.8228 16.2192 20.0263 16.9076C20.1517 17.338 20.208 17.8012 20.2134 18.2499C20.2281 19.6031 20.2261 20.9562 20.224 22.3095C20.2232 22.7872 20.2225 23.2651 20.2225 23.7428V23.9771H23.6737V23.7119C23.6737 23.1281 23.6734 22.5444 23.673 21.9606C23.6724 20.5017 23.6716 19.0428 23.6755 17.5833C23.6773 16.9239 23.6065 16.2737 23.4448 15.6361C23.2032 14.6879 22.7038 13.9032 21.8918 13.3366C21.316 12.9333 20.6838 12.6736 19.9773 12.6445C19.8968 12.6412 19.8157 12.6368 19.7342 12.6324C19.3729 12.6128 19.0057 12.593 18.6603 12.6627C17.6722 12.8606 16.8041 13.3129 16.1483 14.1103C16.0721 14.2017 15.9975 14.2946 15.8863 14.4332L15.8613 14.4646V12.9224ZM7.33879 23.9825H10.7627V12.9296H7.33879V23.9825Z" fill="white"/>
</svg>
