<svg width="136" height="58" viewBox="0 0 136 58" fill="none" xmlns="http://www.w3.org/2000/svg">
<path d="M104.24 15.1715L114.148 27.2468L111.877 42.4183L98.8729 50.5717L4.58512e-05 35.4002L5.47004 0L104.24 15.1715Z" fill="#83BF3F"/>
<path d="M101.866 32.9233C101.659 34.5746 102.794 36.0195 104.446 36.3291C105.994 36.5356 107.542 35.4003 107.748 33.8522C108.058 32.2008 106.923 30.6527 105.271 30.4463C103.62 30.1367 102.175 31.272 101.866 32.9233Z" stroke="#161616" stroke-width="1.8" stroke-miterlimit="10"/>
<path d="M135.098 56.6611C135.098 56.6611 132.002 31.1688 106.51 33.0266" stroke="#161616" stroke-width="1.8" stroke-miterlimit="10" stroke-linecap="round"/>
<path d="M133.86 56.8679C133.86 56.8679 130.351 33.027 106.407 33.9559" stroke="#161616" stroke-width="1.8" stroke-miterlimit="10" stroke-linecap="round"/>
<path d="M113.632 32.3047C113.632 32.3047 112.29 33.44 113.116 35.5041" stroke="#161616" stroke-width="1.8" stroke-miterlimit="10" stroke-linecap="round"/>
<path d="M11.7238 19.9632L9.12058 18.8582L11.5638 10.3197L21.2104 11.9428L20.7481 14.6905L13.8964 13.5377L12.8309 17.2754C13.0814 17.1801 13.4512 17.0968 13.9401 17.0255C14.4305 16.9463 14.9626 16.955 15.5365 17.0515C16.3699 17.1917 17.0871 17.4458 17.6881 17.8137C18.2891 18.1817 18.7721 18.651 19.1369 19.2217C19.5095 19.7937 19.7536 20.4573 19.8691 21.2124C19.9846 21.9675 19.9662 22.7972 19.8141 23.7013C19.6858 24.4639 19.4455 25.1713 19.0933 25.8235C18.7423 26.4678 18.2814 27.0208 17.7105 27.4826C17.141 27.9366 16.4688 28.256 15.6939 28.4409C14.919 28.6258 14.0363 28.6349 13.0456 28.4683C12.3066 28.3439 11.6097 28.1135 10.9549 27.7769C10.3079 27.4417 9.74564 27.0116 9.26805 26.4866C8.79833 25.9629 8.44996 25.3667 8.22293 24.6979C8.00509 24.0225 7.95511 23.2865 8.07299 22.4898L11.4458 23.0573C11.411 23.5527 11.466 23.9945 11.6109 24.3826C11.7649 24.7643 11.9991 25.0786 12.3132 25.3254C12.6274 25.5723 13.0164 25.7348 13.4803 25.8129C13.9127 25.8856 14.2961 25.8652 14.6305 25.7517C14.9649 25.6382 15.2509 25.4519 15.4886 25.1927C15.7275 24.9257 15.9233 24.6029 16.0759 24.2244C16.2377 23.8393 16.3577 23.4148 16.4357 22.951C16.5137 22.4871 16.5295 22.0572 16.4829 21.6613C16.4363 21.2654 16.3222 20.9107 16.1405 20.5972C15.9588 20.2837 15.7036 20.0224 15.375 19.8135C15.0542 19.606 14.6618 19.4631 14.198 19.3851C13.569 19.2793 13.065 19.2955 12.686 19.4339C12.3149 19.5735 11.9942 19.75 11.7238 19.9632Z" fill="white"/>
<path d="M34.3366 21.4274L33.8366 24.3992C33.6197 25.6886 33.2949 26.7779 32.8623 27.6672C32.4311 28.5486 31.9057 29.2445 31.2863 29.7547C30.6761 30.2583 29.9933 30.5922 29.2381 30.7561C28.4829 30.9201 27.6729 30.9294 26.8081 30.7838C26.1162 30.6674 25.4861 30.4725 24.9177 30.199C24.3506 29.9176 23.859 29.5479 23.4429 29.0898C23.0347 28.6331 22.7059 28.0887 22.4565 27.4565C22.2164 26.8179 22.0733 26.0823 22.0274 25.25C21.9815 24.4176 22.0459 23.4826 22.2205 22.4448L22.7205 19.473C22.9375 18.1836 23.2609 17.1021 23.6908 16.2286C24.13 15.3485 24.6546 14.6566 25.2649 14.1529C25.883 13.6506 26.569 13.3213 27.3229 13.1652C28.0781 13.0012 28.8881 12.992 29.7529 13.1375C30.4448 13.2539 31.0703 13.4521 31.6295 13.7322C32.1979 14.0057 32.6908 14.3675 33.1083 14.8177C33.5257 15.2679 33.8545 15.8124 34.0946 16.451C34.3361 17.0819 34.4798 17.8134 34.5257 18.6458C34.573 19.4703 34.5099 20.3975 34.3366 21.4274ZM30.353 24.2739L31.0058 20.394C31.1104 19.7729 31.1662 19.2245 31.1735 18.7487C31.1887 18.2743 31.1565 17.8647 31.0771 17.5198C30.999 17.1671 30.8789 16.8721 30.7167 16.6346C30.5546 16.3971 30.3557 16.21 30.1199 16.0733C29.8842 15.9367 29.6131 15.8425 29.3065 15.7909C28.9212 15.7261 28.5666 15.7433 28.2428 15.8424C27.9267 15.9428 27.6387 16.1409 27.3788 16.4368C27.1201 16.7247 26.8901 17.1307 26.6888 17.6546C26.4966 18.172 26.3357 18.816 26.2061 19.5865L25.5533 23.4664C25.4488 24.0875 25.3883 24.6392 25.3718 25.1215C25.3632 25.6051 25.3973 26.0272 25.4741 26.3877C25.56 26.7418 25.6795 27.0408 25.8325 27.2848C25.9946 27.5223 26.1936 27.7094 26.4293 27.846C26.6728 27.984 26.9479 28.0788 27.2545 28.1304C27.6319 28.1939 27.9786 28.1754 28.2947 28.075C28.6199 27.968 28.9125 27.7666 29.1724 27.4708C29.4416 27.1685 29.6729 26.7547 29.8664 26.2294C30.0599 25.7041 30.2221 25.0523 30.353 24.2739Z" fill="white"/>
<path d="M37.0831 18.9427L37.2359 18.0346C37.3456 17.3821 37.587 16.8123 37.96 16.3253C38.333 15.8383 38.8218 15.4799 39.4264 15.2502C40.0309 15.0204 40.7342 14.973 41.5361 15.1079C42.3616 15.2468 43.0224 15.5238 43.5185 15.9387C44.0225 16.355 44.3671 16.8536 44.5523 17.4345C44.7454 18.0167 44.787 18.6341 44.6773 19.2866L44.5245 20.1947C44.4173 20.8315 44.1773 21.3934 43.8043 21.8804C43.4392 22.3688 42.9543 22.7278 42.3497 22.9575C41.7451 23.1873 41.034 23.2334 40.2164 23.0958C39.4066 22.9595 38.7497 22.6833 38.2458 22.267C37.7496 21.8521 37.4051 21.3535 37.212 20.7713C37.0189 20.189 36.9759 19.5795 37.0831 18.9427ZM39.4883 18.4136L39.3355 19.3217C39.2892 19.5968 39.296 19.8688 39.3559 20.1376C39.425 20.3998 39.5563 20.6281 39.75 20.8224C39.9529 21.0101 40.2155 21.1311 40.5378 21.1853C40.8759 21.2422 41.1636 21.2138 41.401 21.1002C41.6398 20.9786 41.8307 20.8046 41.974 20.5781C42.1185 20.3437 42.2139 20.0889 42.2602 19.8137L42.413 18.9057C42.4619 18.6148 42.4519 18.3382 42.3828 18.076C42.3229 17.8072 42.1955 17.5796 42.0005 17.3932C41.8147 17.2002 41.5527 17.0753 41.2147 17.0184C40.9002 16.9655 40.6197 16.9992 40.3731 17.1194C40.1278 17.2317 39.929 17.4044 39.7766 17.6375C39.6333 17.864 39.5373 18.1227 39.4883 18.4136ZM43.6659 29.9822L43.8187 29.0741C43.9272 28.4294 44.1679 27.8636 44.5409 27.3766C44.9218 26.8909 45.4145 26.5332 46.019 26.3035C46.6315 26.075 47.3426 26.0289 48.1524 26.1652C48.97 26.3028 49.6269 26.579 50.123 26.994C50.6191 27.4089 50.9637 27.9075 51.1568 28.4897C51.3499 29.072 51.3922 29.6854 51.2837 30.3301L51.1309 31.2382C51.0225 31.8829 50.7817 32.4487 50.4087 32.9357C50.0436 33.424 49.5588 33.783 48.9542 34.0128C48.3496 34.2425 47.6424 34.2893 46.8327 34.153C46.015 34.0155 45.3542 33.7386 44.8502 33.3223C44.3463 32.906 43.9938 32.4061 43.7929 31.8226C43.5998 31.2403 43.5575 30.6269 43.6659 29.9822ZM46.083 29.4551L45.9302 30.3631C45.8826 30.6462 45.9005 30.9241 45.984 31.1968C46.0674 31.4696 46.2067 31.6991 46.4017 31.8856C46.6045 32.0733 46.8553 32.1923 47.1541 32.2426C47.5315 32.3061 47.8389 32.281 48.0763 32.1673C48.3137 32.0537 48.4929 31.8776 48.6138 31.6393C48.7426 31.4023 48.8308 31.1422 48.8785 30.8592L49.0312 29.9511C49.0789 29.6681 49.0681 29.3955 48.9991 29.1332C48.9313 28.8631 48.8 28.6349 48.605 28.4484C48.4192 28.2555 48.1611 28.1312 47.8309 28.0757C47.5007 28.0201 47.2123 28.0524 46.9657 28.1726C46.7283 28.2863 46.5334 28.4597 46.381 28.6927C46.23 28.9179 46.1306 29.172 46.083 29.4551ZM50.1624 19.3364L39.5195 31.3461L38.0153 30.1956L48.6582 18.1859L50.1624 19.3364Z" fill="white"/>
<path d="M74.7889 29.3736L74.652 30.1873C74.4324 31.4924 74.0584 32.634 73.53 33.6123C73.0016 34.5906 72.3535 35.391 71.5858 36.0137C70.8195 36.6286 69.9557 37.0532 68.9946 37.2876C68.0414 37.5234 67.0223 37.55 65.9374 37.3675C64.8603 37.1862 63.906 36.8276 63.0745 36.2916C62.2509 35.7569 61.5737 35.0729 61.0429 34.2398C60.5133 33.3989 60.1551 32.4291 59.968 31.3305C59.7888 30.2331 59.809 29.0319 60.0286 27.7268L60.1655 26.9131C60.3864 25.6002 60.7604 24.4585 61.2875 23.4881C61.8159 22.5098 62.464 21.7094 63.2317 21.0867C64.0073 20.4653 64.8717 20.0367 65.8249 19.801C66.786 19.5665 67.8051 19.5399 68.8821 19.7211C69.9671 19.9037 70.9214 20.2623 71.745 20.797C72.5764 21.3331 73.253 22.0209 73.7746 22.8605C74.3042 23.7015 74.6585 24.6706 74.8377 25.768C75.0261 26.8587 75.0098 28.0606 74.7889 29.3736ZM71.0787 29.5861L71.2196 28.7487C71.373 27.8368 71.4254 27.0209 71.3767 26.3013C71.328 25.5817 71.1822 24.9589 70.9392 24.4329C70.6962 23.907 70.3626 23.487 69.9385 23.1731C69.5156 22.8514 69.0054 22.6402 68.4079 22.5397C67.8104 22.4391 67.2592 22.4717 66.7544 22.6374C66.2587 22.7965 65.81 23.0848 65.4083 23.5023C65.0144 23.9211 64.6767 24.4626 64.3952 25.1266C64.1137 25.7907 63.8962 26.5788 63.7428 27.4908L63.6019 28.3281C63.4498 29.2322 63.3974 30.048 63.4448 30.7755C63.4935 31.4951 63.6387 32.1219 63.8803 32.6557C64.1233 33.1816 64.4562 33.6055 64.879 33.9273C65.3019 34.249 65.8121 34.4602 66.4096 34.5607C67.0071 34.6613 67.5583 34.6287 68.0632 34.463C68.568 34.2973 69.0174 34.0051 69.4112 33.5863C69.8064 33.1596 70.1447 32.6142 70.4263 31.9502C70.7091 31.2782 70.9266 30.4902 71.0787 29.5861Z" fill="white"/>
<path d="M79.94 39.4809L76.52 38.9055L78.8574 25.0133C79.0201 24.0463 79.3457 23.2643 79.8342 22.6674C80.3319 22.0639 80.9551 21.6514 81.7038 21.4297C82.4617 21.2015 83.3203 21.1681 84.2795 21.3295C84.5939 21.3824 84.8927 21.4569 85.1756 21.553C85.4599 21.6413 85.7343 21.74 85.9989 21.8492L85.533 24.4024C85.3902 24.3379 85.2376 24.2839 85.0751 24.2404C84.9127 24.1969 84.7214 24.1567 84.5012 24.1196C84.0924 24.0508 83.7307 24.0627 83.416 24.1553C83.1104 24.2413 82.8605 24.4054 82.6661 24.6476C82.4718 24.8898 82.3422 25.2035 82.2774 25.5887L79.94 39.4809ZM84.6342 27.1495L84.2294 29.5552L76.3635 28.2318L76.7682 25.826L84.6342 27.1495Z" fill="white"/>
<path d="M88.5961 40.9373L85.1761 40.3619L87.5135 26.4697C87.6762 25.5027 88.0018 24.7207 88.4903 24.1238C88.988 23.5204 89.6112 23.1078 90.3599 22.8861C91.1178 22.6579 91.9764 22.6245 92.9355 22.7859C93.25 22.8388 93.5487 22.9133 93.8317 23.0095C94.116 23.0977 94.3904 23.1964 94.655 23.3056L94.189 25.8588C94.0463 25.7943 93.8937 25.7404 93.7312 25.6968C93.5688 25.6533 93.3775 25.6131 93.1573 25.576C92.7485 25.5073 92.3867 25.5191 92.072 25.6117C91.7665 25.6977 91.5166 25.8619 91.3222 26.104C91.1279 26.3462 90.9983 26.6599 90.9335 27.0451L88.5961 40.9373ZM93.2903 28.6059L92.8855 31.0116L85.0195 29.6882L85.4243 27.2824L93.2903 28.6059Z" fill="white"/>
</svg>
