<svg width="16" height="15" viewBox="0 0 16 15" fill="none" xmlns="http://www.w3.org/2000/svg">
<path d="M7.49292 0.231937C7.52739 0.1623 7.58064 0.103682 7.64665 0.0626997C7.71266 0.0217168 7.78882 0 7.86652 0C7.94422 0 8.02037 0.0217168 8.08638 0.0626997C8.1524 0.103682 8.20564 0.1623 8.24011 0.231937L10.0569 3.91202C10.1766 4.15424 10.3533 4.3638 10.5718 4.52271C10.7903 4.68162 11.0441 4.78513 11.3114 4.82437L15.3745 5.41897C15.4515 5.43013 15.5239 5.4626 15.5834 5.51272C15.6428 5.56284 15.6871 5.62861 15.7112 5.70259C15.7352 5.77657 15.7381 5.8558 15.7195 5.93133C15.7009 6.00686 15.6615 6.07567 15.6058 6.12997L12.6674 8.9913C12.4736 9.18014 12.3286 9.41325 12.2449 9.67055C12.1612 9.92786 12.1412 10.2017 12.1868 10.4684L12.8805 14.511C12.8941 14.588 12.8858 14.6672 12.8565 14.7397C12.8273 14.8121 12.7782 14.8749 12.715 14.9208C12.6518 14.9667 12.5769 14.9939 12.499 14.9994C12.421 15.0048 12.3431 14.9882 12.2741 14.9515L8.64201 13.0418C8.40269 12.9162 8.13643 12.8505 7.86612 12.8505C7.59581 12.8505 7.32955 12.9162 7.09023 13.0418L3.45891 14.9515C3.38996 14.988 3.31215 15.0044 3.23433 14.9989C3.1565 14.9933 3.0818 14.9661 3.0187 14.9202C2.9556 14.8743 2.90665 14.8116 2.87741 14.7393C2.84817 14.667 2.83982 14.5879 2.8533 14.511L3.54622 10.4692C3.59199 10.2023 3.57216 9.92835 3.48844 9.67088C3.40472 9.41341 3.25962 9.18018 3.06566 8.9913L0.127257 6.13076C0.0710954 6.07652 0.0312975 6.00759 0.0123971 5.93183C-0.00650336 5.85608 -0.00374644 5.77653 0.0203537 5.70226C0.0444538 5.628 0.0889281 5.56199 0.148711 5.51177C0.208493 5.46154 0.28118 5.42911 0.358491 5.41818L4.42082 4.82437C4.68843 4.78544 4.94258 4.68206 5.16138 4.52313C5.38018 4.36419 5.55709 4.15447 5.67687 3.91202L7.49292 0.231937Z" fill="#FFA500"/>
</svg>
