<svg width="32" height="32" viewBox="0 0 32 32" fill="none" xmlns="http://www.w3.org/2000/svg">
<path d="M15.9999 11.606C16.1249 11.606 16.2252 11.6438 16.3319 11.7505L22.9247 18.3423C23.0339 18.4515 23.0692 18.5502 23.0692 18.6665C23.0692 18.7828 23.0338 18.8815 22.9247 18.9907C22.8206 19.0948 22.7182 19.1352 22.5839 19.1353C22.4493 19.1353 22.3462 19.0949 22.2421 18.9907L22.2411 18.9897L16.4706 13.2515L15.9989 12.7827L9.75769 19.0239C9.65404 19.1276 9.5654 19.1567 9.45789 19.1528C9.3322 19.1482 9.22399 19.1055 9.10925 18.9907C9.00511 18.8866 8.96472 18.7844 8.96472 18.6499C8.96473 18.5154 9.0051 18.4132 9.10925 18.3091L15.6678 11.7505C15.7746 11.6437 15.8748 11.606 15.9999 11.606Z" fill="black" stroke="black" stroke-width="1.33333"/>
</svg>
