<svg width="48" height="49" viewBox="0 0 48 49" fill="none" xmlns="http://www.w3.org/2000/svg">
<rect x="0.5" y="1.36133" width="47" height="47" rx="23.5" fill="white"/>
<rect x="0.5" y="1.36133" width="47" height="47" rx="23.5" stroke="black"/>
<path d="M23.9951 17.5508C24.0661 17.5514 24.1279 17.5681 24.1895 17.6113L24.251 17.6641L31.1992 24.6123C31.2524 24.6665 31.2781 24.7086 31.29 24.7373V24.7383C31.3052 24.7746 31.3135 24.8147 31.3135 24.8623C31.3134 24.9099 31.3048 24.949 31.29 24.9844V24.9854C31.2782 25.0138 31.2527 25.0562 31.1992 25.1104L24.2451 32.0586C24.1538 32.1489 24.0752 32.1748 23.9922 32.1748C23.9115 32.1747 23.8393 32.1502 23.7559 32.0645L23.751 32.0596L23.6992 31.999C23.6571 31.9394 23.6426 31.8814 23.6426 31.8164C23.6426 31.7518 23.6573 31.6941 23.6992 31.6348L23.751 31.5742L30.1123 25.2129H16.7021C16.5801 25.2129 16.5078 25.1777 16.4473 25.1172H16.4463C16.3854 25.0563 16.3506 24.9833 16.3506 24.8613C16.3506 24.7393 16.3854 24.6664 16.4463 24.6055H16.4473C16.5078 24.5449 16.58 24.5098 16.7021 24.5098H30.1123L23.7568 18.1543C23.6955 18.0929 23.6637 18.0345 23.6514 17.9697L23.6455 17.9023C23.6446 17.8124 23.6708 17.7388 23.751 17.6582L23.752 17.6572C23.8321 17.5766 23.9055 17.55 23.9951 17.5508Z" fill="black" stroke="black"/>
</svg>
