<svg width="48" height="49" viewBox="0 0 48 49" fill="none" xmlns="http://www.w3.org/2000/svg">
<rect x="0.5" y="1.36133" width="47" height="47" rx="23.5" fill="white"/>
<rect x="0.5" y="1.36133" width="47" height="47" rx="23.5" stroke="black"/>
<path d="M24.0078 17.5479C24.0934 17.5479 24.1668 17.5742 24.249 17.6562C24.3313 17.7422 24.3574 17.8193 24.3574 17.9053C24.3573 17.9921 24.3308 18.0661 24.249 18.1484L17.8877 24.5098H31.2979C31.4194 24.5098 31.4945 24.5451 31.5586 24.6084C31.6207 24.6698 31.6553 24.7415 31.6553 24.8613C31.6553 24.9812 31.6207 25.0529 31.5586 25.1143C31.4945 25.1775 31.4194 25.2129 31.2979 25.2129H17.8877L24.2432 31.5684V31.5674C24.3254 31.6498 24.3537 31.7266 24.3545 31.8184V31.8193C24.355 31.8858 24.3404 31.9442 24.2988 32.0039L24.2471 32.0654C24.1671 32.1464 24.0939 32.1726 24.0049 32.1719C23.9104 32.171 23.8321 32.141 23.749 32.0586L16.8008 25.1104C16.7476 25.0562 16.7219 25.014 16.71 24.9854V24.9844C16.6949 24.948 16.6865 24.908 16.6865 24.8604C16.6866 24.8128 16.6952 24.7736 16.71 24.7383V24.7373C16.7218 24.7088 16.7473 24.6665 16.8008 24.6123L23.751 17.6621C23.8414 17.5749 23.9211 17.5479 24.0078 17.5479Z" fill="black" stroke="black"/>
</svg>
