<svg width="67" height="640" viewBox="0 0 67 640" fill="none" xmlns="http://www.w3.org/2000/svg">
<rect x="28.382" width="10.0131" height="640" fill="white"/>
<ellipse cx="33.3884" cy="347.33" rx="33.3884" ry="33.3884" fill="white"/>
<path fill-rule="evenodd" clip-rule="evenodd" d="M20.0234 348.303C19.7655 348.045 19.6207 347.695 19.6207 347.33C19.6207 346.965 19.7655 346.615 20.0234 346.357L26.9076 339.473C27.1687 339.229 27.5139 339.097 27.8706 339.103C28.2273 339.11 28.5676 339.254 28.8199 339.506C29.0721 339.759 29.2166 340.099 29.2229 340.456C29.2292 340.812 29.0968 341.157 28.8536 341.418L22.9423 347.33L28.8536 353.241C29.0968 353.502 29.2292 353.847 29.2229 354.204C29.2166 354.561 29.0721 354.901 28.8199 355.153C28.5676 355.406 28.2273 355.55 27.8706 355.556C27.5139 355.563 27.1687 355.43 26.9076 355.187L20.0234 348.303ZM37.9225 355.187C37.6646 354.929 37.5198 354.579 37.5198 354.214C37.5198 353.849 37.6646 353.499 37.9225 353.241L43.8338 347.33L37.9225 341.418C37.7872 341.292 37.6787 341.14 37.6034 340.972C37.5282 340.803 37.4877 340.62 37.4845 340.435C37.4812 340.251 37.5152 340.067 37.5845 339.896C37.6537 339.724 37.7568 339.568 37.8875 339.438C38.0183 339.307 38.174 339.204 38.3454 339.135C38.5169 339.065 38.7005 339.031 38.8854 339.035C39.0703 339.038 39.2526 339.078 39.4215 339.153C39.5904 339.229 39.7424 339.337 39.8684 339.473L46.7527 346.357C47.0105 346.615 47.1554 346.965 47.1554 347.33C47.1554 347.695 47.0105 348.045 46.7527 348.303L39.8684 355.187C39.6103 355.445 39.2603 355.59 38.8954 355.59C38.5306 355.59 38.1806 355.445 37.9225 355.187Z" fill="black"/>
</svg>
